<?xml version="1.0" standalone="no"?>
<!DOCTYPE svg PUBLIC "-//W3C//DTD SVG 1.1//EN" "http://www.w3.org/Graphics/SVG/1.1/DTD/svg11.dtd" >
<svg>
<metadata>
Created by FontForge 20090914 at Sat Jul  6 01:34:04 2013
 By www-data
Copyright (c) 1990, 1992 Adobe Systems Incorporated.  All Rights Reserved.DINSchrift is a trademark of Linotype-Hell AG and/or  
</metadata>
<defs>
<font id="DINNeuzeitGrotesk-Light" horiz-adv-x="260" >
  <font-face 
    font-family="DINNeuzeitGrotesk-Light"
    font-weight="400"
    font-stretch="normal"
    units-per-em="1000"
    panose-1="0 0 0 0 0 0 0 0 0 0"
    ascent="800"
    descent="-200"
    x-height="521"
    cap-height="760"
    bbox="-165 -250 1001 964.999"
    underline-thickness="50"
    underline-position="-55"
    unicode-range="U+0020-U+F002"
  />
<missing-glyph 
 />
    <glyph glyph-name=".notdef" 
 />
    <glyph glyph-name="space" unicode=" " 
 />
    <glyph glyph-name="space" unicode="&#xa0;" 
 />
    <glyph glyph-name="exclam" unicode="!" horiz-adv-x="352" 
d="M110 58c0 18 6.5 33.5 19.5 46.5s28.5 19.5 46.5 19.5s33.5 -6.5 46.5 -19.5s19.5 -28.5 19.5 -46.5s-6.5 -33.333 -19.5 -46s-28.5 -19 -46.5 -19s-33.5 6.33301 -46.5 19s-19.5 28 -19.5 46v0zM128 183v577h96v-577h-96v0z" />
    <glyph glyph-name="quotedbl" unicode="&#x22;" horiz-adv-x="520" 
d="M147 478v282h74v-282h-74v0zM299 478v282h74v-282h-74v0z" />
    <glyph glyph-name="numbersign" unicode="#" horiz-adv-x="520" 
d="M347 509l31 225h68l-31 -225h103v-62h-112l-22 -160h102v-62h-111l-31 -225h-68l31 225h-134l-31 -225h-68l31 225h-103v62h112l22 160h-102v62h111l31 225h68l-31 -225h134v0zM316 287l22 160h-134l-22 -160h134v0z" />
    <glyph glyph-name="dollar" unicode="$" horiz-adv-x="520" 
d="M229 -83l-0.000976562 75.0049c-60.667 5.33301 -110.334 25.666 -149.001 60.999s-60.667 86.333 -66 153h96c3.33301 -34.667 14 -64 32 -88s47 -39.667 87 -47v258l-34 13c-56.667 21.333 -99 48.166 -127 80.499s-42 72.166 -42 119.499
c0 57.333 19.833 103.5 59.5 138.5s87.5 55.5 143.5 61.5v75h56v-75c56.667 -4 104.667 -24.167 144 -60.5s61.333 -89.833 66 -160.5h-90c-6 39.333 -19.167 71.666 -39.5 96.999s-47.166 40.333 -80.499 45v-253l44 -16c60.667 -21.333 105.334 -48.833 134.001 -82.5
s43 -72.834 43 -117.501c0 -56.667 -20.167 -103.5 -60.5 -140.5s-93.833 -57.167 -160.5 -60.5v-76h-56v0zM284.999 309.005v-238c37.333 3.33301 67.5 15.833 90.5 37.5s34.5 47.5 34.5 77.5c0 28.667 -11 52.667 -33 72s-50.333 35.333 -85 48l-7 3v0zM228.999 430.005
v232.999c-31.333 -4.66699 -55 -15 -71 -31s-26.333 -33.333 -31 -52c-2 -6 -3.33301 -12 -4 -18s-1 -11.667 -1 -17c0 -26.667 8.83301 -49.167 26.5 -67.5s44.5 -34.166 80.5 -47.499v0z" />
    <glyph glyph-name="percent" unicode="%" horiz-adv-x="907" 
d="M205 -8l418 750h79l-418 -750h-79v0zM530 134v82c0 44 13.667 78.833 41 104.5s62.333 38.5 105 38.5c43.333 0 78.5 -12.833 105.5 -38.5s40.5 -60.5 40.5 -104.5v-82c0 -44 -13.5 -78.5 -40.5 -103.5s-62.167 -37.5 -105.5 -37.5c-42.667 0 -77.667 12.5 -105 37.5
s-41 59.5 -41 103.5v0zM743 147v56c0 27.333 -5.33301 48.833 -16 64.5s-27.667 23.5 -51 23.5c-22.667 0 -39.5 -7.83301 -50.5 -23.5s-16.5 -37.167 -16.5 -64.5v-56c0 -26.667 5.5 -47.834 16.5 -63.501s27.833 -23.5 50.5 -23.5c23.333 0 40.333 7.83301 51 23.5
s16 36.834 16 63.501v0zM85 517v82c0 44 13.667 78.833 41 104.5s62.333 38.5 105 38.5c43.333 0 78.5 -12.833 105.5 -38.5s40.5 -60.5 40.5 -104.5v-82c0 -44 -13.5 -78.667 -40.5 -104s-62.167 -38 -105.5 -38c-42.667 0 -77.667 12.667 -105 38s-41 60 -41 104v0z
M298 530v56c0 27.333 -5.33301 48.833 -16 64.5s-27.667 23.5 -51 23.5c-22.667 0 -39.5 -7.83301 -50.5 -23.5s-16.5 -37.167 -16.5 -64.5v-56c0 -26.667 5.5 -47.834 16.5 -63.501s27.833 -23.5 50.5 -23.5c23.333 0 40.333 7.83301 51 23.5s16 36.834 16 63.501v0z" />
    <glyph glyph-name="ampersand" unicode="&#x26;" horiz-adv-x="741" 
d="M523 251l110.002 100.002l61 -63l-120 -108l129 -180h-117l-81 117c-18.667 -18.667 -36.167 -35.334 -52.5 -50.001s-32.5 -27 -48.5 -37c-20 -12.667 -40.333 -22 -61 -28s-43.334 -9 -68.001 -9c-60 0 -109 20 -147 60s-57 87.333 -57 142
c0 58.667 18.333 107.167 55 145.5s87.667 74.833 153 109.5c-15.333 20.667 -27.333 38.5 -36 53.5s-15 29.5 -19 43.5c-1.33301 6.66699 -2.5 13.5 -3.5 20.5s-1.5 14.167 -1.5 21.5c0 43.333 14.167 78.333 42.5 105s63.833 40 106.5 40
c37.333 0 67.166 -9.5 89.499 -28.5s37.833 -39.833 46.5 -62.5c2.66699 -7.33301 4.66699 -14.333 6 -21s2 -13.334 2 -20.001c0 -39.333 -10.333 -72.833 -31 -100.5s-48 -52.167 -82 -73.5l124 -177v0zM456.002 189.002l-132 192.996
c-51.333 -31.333 -89 -58.666 -113 -81.999s-39 -45.666 -45 -66.999c-2 -5.33301 -3.33301 -10.666 -4 -15.999s-1 -10.666 -1 -15.999c0 -32 11.5 -59.833 34.5 -83.5s50.833 -35.5 83.5 -35.5c27.333 0 55.5 9.83301 84.5 29.5s59.833 45.5 92.5 77.5v0zM422.002 594.998
c0 16 -4.66797 30.002 -14.001 42.002s-22.666 18 -39.999 18h-4h-3c-13.333 -2 -25.333 -8.16699 -36 -18.5s-16 -25.166 -16 -44.499c0 -14.667 4 -29.834 12 -45.501s18.667 -33.167 32 -52.5c10.667 7.33301 19.834 14.666 27.501 21.999s14.5 14.666 20.5 21.999
c7.33301 9.33301 12.666 18.833 15.999 28.5s5 19.167 5 28.5v0z" />
    <glyph glyph-name="quotesingle" unicode="'" horiz-adv-x="296" 
d="M111 478v282h74v-282h-74v0z" />
    <glyph glyph-name="parenleft" unicode="(" horiz-adv-x="352" 
d="M326 -166l-67 -54.002c-58.667 73.333 -105 153.166 -139 239.499s-51 175.833 -51 268.5s17 182.334 51 269.001s80.333 166.334 139 239.001l67 -54c-51.333 -64.667 -91 -136.167 -119 -214.5s-42 -158.166 -42 -239.499s14 -161 42 -239s67.667 -149.333 119 -214v-1
z" />
    <glyph glyph-name="parenright" unicode=")" horiz-adv-x="352" 
d="M93 -220l-67 54.0029c51.333 65.333 91 137 119 215s42 157.667 42 239s-14 161.166 -42 239.499s-67.667 149.833 -119 214.5l67 54c58.667 -72.667 105 -152.334 139 -239.001s51 -176.334 51 -269.001s-17 -182.167 -51 -268.5s-80.333 -165.833 -139 -238.5v-1z" />
    <glyph glyph-name="asterisk" unicode="*" horiz-adv-x="408" 
d="M175 627l-4 133h66l-4 -133l120 45l18 -62l-122 -37l83 -104l-55 -34l-73 106l-73 -106l-55 34l83 104l-122 37l18 62l120 -45v0z" />
    <glyph glyph-name="plus" unicode="+" horiz-adv-x="600" 
d="M263 290v216h74v-216h216v-74h-216v-216h-74v216h-216v74h216v0z" />
    <glyph glyph-name="comma" unicode="," 
d="M4 -138l100 262l91 -44l-126 -247l-65 29v0z" />
    <glyph glyph-name="hyphen" unicode="-" horiz-adv-x="296" 
d="M30 231v90h236v-90h-236v0z" />
    <glyph glyph-name="period" unicode="." 
d="M64 58c0 18 6.5 33.5 19.5 46.5s28.5 19.5 46.5 19.5s33.5 -6.5 46.5 -19.5s19.5 -28.5 19.5 -46.5s-6.5 -33.333 -19.5 -46s-28.5 -19 -46.5 -19s-33.5 6.33301 -46.5 19s-19.5 28 -19.5 46v0z" />
    <glyph glyph-name="slash" unicode="/" horiz-adv-x="463" 
d="M20 -12l344 784h79l-344 -784h-79v0z" />
    <glyph glyph-name="zero" unicode="0" horiz-adv-x="520" 
d="M43 237v281c0 60 19.167 112.333 57.5 157s91.5 67 159.5 67s121.167 -22.333 159.5 -67s57.5 -97 57.5 -157v-281c0 -82.667 -20.167 -144 -60.5 -184s-92.5 -60 -156.5 -60s-116.167 20 -156.5 60s-60.5 101.333 -60.5 184v0zM387 208v313c0 35.333 -10 67 -30 95
s-52.333 42 -97 42s-77 -14 -97 -42s-30 -59.667 -30 -95v-313c0 -34.667 10 -66.167 30 -94.5s52.333 -42.5 97 -42.5s77 14.167 97 42.5s30 59.833 30 94.5v0z" />
    <glyph glyph-name="one" unicode="1" horiz-adv-x="406" 
d="M45 528v96l233 131v-755h-90v613l-143 -85v0z" />
    <glyph glyph-name="two" unicode="2" horiz-adv-x="520" 
d="M25 0l280.999 419.001c0.666992 1.33301 1.5 2.66602 2.5 3.99902s1.83301 2.66602 2.5 3.99902c13.333 20 25.5 40.667 36.5 62s16.5 44.333 16.5 69c0 27.333 -10.167 50.833 -30.5 70.5s-45.166 29.5 -74.499 29.5c-33.333 0 -62 -9.33301 -86 -28
s-37.667 -50.667 -41 -96h-90c1.33301 62 21.5 112.167 60.5 150.5s88.833 57.5 149.5 57.5c53.333 0 100.333 -15.667 141 -47s61 -76.666 61 -135.999c0 -24 -3.33301 -46.5 -10 -67.5s-16 -40.5 -28 -58.5l-231 -349h263v-84h-423v0z" />
    <glyph glyph-name="three" unicode="3" horiz-adv-x="520" 
d="M79 347l213.001 303.002h-247v84h407l-194 -282c61.333 0 112.333 -19.667 153 -59s61 -93.333 61 -162c0 -70 -23.5 -127.167 -70.5 -171.5s-102.167 -66.5 -165.5 -66.5c-48 0 -89 7.33301 -123 22s-66.667 47 -98 97c-0.666992 1.33301 -1.5 2.66602 -2.5 3.99902
s-1.83301 2.66602 -2.5 3.99902l77 43c15.333 -29.333 34.666 -52 57.999 -68s51.333 -24 84 -24c3.33301 0 6.83301 0.166992 10.5 0.5s7.5 0.833008 11.5 1.5c32.667 4.66699 62.667 20 90 46s41 61 41 105c0 47.333 -15.333 85.833 -46 115.5s-69.667 44.5 -117 44.5
c-4.66699 0 -9.16699 -0.166992 -13.5 -0.5s-8.83301 -0.833008 -13.5 -1.5c-18.667 -3.33301 -37 -9 -55 -17s-33 -18 -45 -30l-13 12v0z" />
    <glyph glyph-name="four" unicode="4" horiz-adv-x="520" 
d="M311 0v182h-299v40l371 529h18v-490h83v-79h-83v-182h-90v0zM311 261v262h-2l-182 -262h184v0z" />
    <glyph glyph-name="five" unicode="5" horiz-adv-x="520" 
d="M79 321l-10 6.99805v406h355v-84h-271v-206c12 5.33301 23.333 9.33301 34 12s21 4.66699 31 6c5.33301 0.666992 10.5 1.16699 15.5 1.5s10.167 0.5 15.5 0.5c8.66699 0 17.667 -0.666992 27 -2s18.666 -3 27.999 -5c42.667 -11.333 81.834 -35.666 117.501 -72.999
s53.5 -88 53.5 -152c0 -66 -22 -122.333 -66 -169s-98.667 -70 -164 -70c-56.667 0 -102.834 11 -138.501 33s-66.167 53.667 -91.5 95l75 49c15.333 -31.333 35.833 -55.666 61.5 -72.999s54.5 -26 86.5 -26c5.33301 0 11 0.333008 17 1s11.667 1.66699 17 3
c28.667 7.33301 54.667 23.5 78 48.5s35 60.5 35 106.5c0 45.333 -14.667 82.5 -44 111.5s-65.333 43.5 -108 43.5c-27.333 0 -53.666 -5 -78.999 -15s-50.333 -26.333 -75 -49v0z" />
    <glyph glyph-name="six" unicode="6" horiz-adv-x="520" 
d="M316 742h107.998l-207 -306l2 -2c5.33301 2 11 3.66699 17 5s12 2.33301 18 3c4.66699 0.666992 9.33398 1 14.001 1h13c62.667 0 112.5 -22.5 149.5 -67.5s55.833 -94.5 56.5 -148.5v-1.5v-1.5c0 -68 -21.667 -123.5 -65 -166.5s-95.666 -64.5 -156.999 -64.5
c-64.667 0 -119.5 19.833 -164.5 59.5s-67.5 94.5 -67.5 164.5c0 8 0.333008 15.833 1 23.5s1.66699 15.167 3 22.5c4.66699 24.667 13.667 50.5 27 77.5s33 60.833 59 101.5l193 300v0zM122.998 217c0 -46.667 13.667 -82.668 41 -108.001s59.333 -38 96 -38
c40 0 72.833 13.333 98.5 40s38.5 62 38.5 106s-12.833 79.5 -38.5 106.5s-58.5 40.5 -98.5 40.5c-36.667 0 -68.667 -12.667 -96 -38s-41 -61.666 -41 -108.999v0z" />
    <glyph glyph-name="seven" unicode="7" horiz-adv-x="520" 
d="M72 0l272 650h-297v84h426l-305 -734h-96v0z" />
    <glyph glyph-name="eight" unicode="8" horiz-adv-x="520" 
d="M33 208c0 45.333 11.502 84.833 34.502 118.5s53.167 58.167 90.5 73.5c-29.333 14.667 -52.5 35.167 -69.5 61.5s-25.5 55.833 -25.5 88.5c0 4.66699 0.166992 9.33398 0.5 14.001s0.833008 9.66699 1.5 15c6 40.667 24.667 78 56 112s77.666 51 138.999 51
s107.666 -17 138.999 -51s50 -71.333 56 -112c0.666992 -5.33301 1.16699 -10.333 1.5 -15s0.5 -9.33398 0.5 -14.001c0 -32.667 -8.5 -62.167 -25.5 -88.5s-40.167 -46.833 -69.5 -61.5c37.333 -15.333 67.5 -39.833 90.5 -73.5s34.5 -73.167 34.5 -118.5
c0 -56.667 -20 -106.667 -60 -150s-95.667 -65 -167 -65s-127 21.667 -167 65s-60 93.333 -60 150v0zM397.002 213c0 42.667 -13.5 76.667 -40.5 102s-59.167 38 -96.5 38s-69.5 -12.667 -96.5 -38s-40.5 -59.333 -40.5 -102c0 -43.333 13.5 -77.833 40.5 -103.5
s59.167 -38.5 96.5 -38.5s69.5 12.833 96.5 38.5s40.5 60.167 40.5 103.5v0zM367.002 552c0 32 -10.333 58.5 -31 79.5s-46 31.5 -76 31.5s-55.333 -10.5 -76 -31.5s-31 -47.5 -31 -79.5c0 -31.333 10.333 -57.333 31 -78s46 -31 76 -31s55.333 10.333 76 31
s31 46.667 31 78v0z" />
    <glyph glyph-name="nine" unicode="9" horiz-adv-x="520" 
d="M96 -8l207 306l-2 2c-5.33301 -2 -11 -3.66699 -17 -5s-12 -2.33301 -18 -3c-4.66699 -0.666992 -9.33398 -1 -14.001 -1h-13c-62.667 0 -112.5 22.5 -149.5 67.5s-55.833 94.5 -56.5 148.5v1.5v1.5c0 68 21.833 123.667 65.5 167s95.834 65 156.501 65
c64.667 0 119.5 -20 164.5 -60s67.5 -95 67.5 -165c0 -8 -0.333008 -15.833 -1 -23.5s-1.66699 -15.167 -3 -22.5c-4.66699 -24.667 -13.667 -50.5 -27 -77.5s-33 -60.833 -59 -101.5l-193 -300h-108v0zM397 517c0 47.333 -13.5 83.499 -40.5 108.499
s-59.167 37.5 -96.5 37.5c-40 0 -72.833 -13.333 -98.5 -40s-38.5 -62 -38.5 -106s12.833 -79.5 38.5 -106.5s58.5 -40.5 98.5 -40.5c37.333 0 69.5 12.833 96.5 38.5s40.5 61.834 40.5 108.501v0z" />
    <glyph glyph-name="colon" unicode=":" 
d="M64 58c0 18 6.5 33.5 19.5 46.5s28.5 19.5 46.5 19.5s33.5 -6.5 46.5 -19.5s19.5 -28.5 19.5 -46.5s-6.5 -33.333 -19.5 -46s-28.5 -19 -46.5 -19s-33.5 6.33301 -46.5 19s-19.5 28 -19.5 46v0zM64 467c0 18 6.5 33.5 19.5 46.5s28.5 19.5 46.5 19.5
s33.5 -6.5 46.5 -19.5s19.5 -28.5 19.5 -46.5s-6.5 -33.5 -19.5 -46.5s-28.5 -19.5 -46.5 -19.5s-33.5 6.5 -46.5 19.5s-19.5 28.5 -19.5 46.5v0z" />
    <glyph glyph-name="semicolon" unicode=";" 
d="M4 -138l100 262l91 -44l-126 -247l-65 29v0zM64 467c0 18 6.5 33.5 19.5 46.5s28.5 19.5 46.5 19.5s33.5 -6.5 46.5 -19.5s19.5 -28.5 19.5 -46.5s-6.5 -33.5 -19.5 -46.5s-28.5 -19.5 -46.5 -19.5s-33.5 6.5 -46.5 19.5s-19.5 28.5 -19.5 46.5v0z" />
    <glyph glyph-name="less" unicode="&#x3c;" horiz-adv-x="600" 
d="M47 219v68l506 227v-74l-416 -187l416 -187v-74l-506 227v0z" />
    <glyph glyph-name="equal" unicode="=" horiz-adv-x="600" 
d="M47 114v74h506v-74h-506v0zM47 318v74h506v-74h-506v0z" />
    <glyph glyph-name="greater" unicode="&#x3e;" horiz-adv-x="600" 
d="M463 253l-416 187v74l506 -227v-68l-506 -227v74l416 187v0z" />
    <glyph glyph-name="question" unicode="?" horiz-adv-x="520" 
d="M152 58c0 18 6.5 33.5 19.5 46.5s28.5 19.5 46.5 19.5s33.5 -6.5 46.5 -19.5s19.5 -28.5 19.5 -46.5s-6.5 -33.333 -19.5 -46s-28.5 -19 -46.5 -19s-33.5 6.33301 -46.5 19s-19.5 28 -19.5 46v0zM263 183l-90.002 -0.00292969c0 62.667 5.5 110.667 16.5 144
s32.167 63.666 63.5 90.999c2.66699 2 5.16699 4 7.5 6s4.83301 4 7.5 6l54 42c2.66699 2.66699 5.33398 5 8.00098 7s5.33398 4.33301 8.00098 7c11.333 10.667 19.5 22 24.5 34s7.5 26.667 7.5 44c0 30.667 -10 57 -30 79s-45.667 33 -77 33
c-39.333 0 -68 -12.5 -86 -37.5s-27 -54.167 -27 -87.5h-96c4 61.333 24.167 111.5 60.5 150.5s86.5 58.5 150.5 58.5c62 0 111 -20 147 -60s54 -86.667 54 -140c0 -19.333 -2.16699 -37.333 -6.5 -54s-12.5 -33 -24.5 -49c-5.33301 -7.33301 -11.833 -14.666 -19.5 -21.999
s-16.5 -15 -26.5 -23l-59 -46c-4.66699 -3.33301 -9 -6.66602 -13 -9.99902s-7.66699 -6.66602 -11 -9.99902c-16.667 -15.333 -28 -33.666 -34 -54.999s-9 -57.333 -9 -108v0z" />
    <glyph glyph-name="at" unicode="@" horiz-adv-x="800" 
d="M545 521l19.0029 63.9961h79l-83 -275c-0.666992 -1.33301 -1.16699 -2.66602 -1.5 -3.99902s-0.5 -2.66602 -0.5 -3.99902c-0.666992 -2 -1.16699 -3.66699 -1.5 -5s-0.833008 -2.66602 -1.5 -3.99902c-2.66699 -10 -5 -19.667 -7 -29s-3 -17 -3 -23
c0 -8 1.66699 -14.167 5 -18.5s8.66602 -6.5 15.999 -6.5c39.333 0 75.5 23.333 108.5 70s49.5 98 49.5 154c0 84.667 -29.833 150.834 -89.5 198.501s-131.834 71.5 -216.501 71.5c-98.667 0 -179.334 -32.5 -242.001 -97.5s-94 -143.5 -94 -235.5
c0 -92.667 33.167 -170.334 99.5 -233.001s147.833 -94 244.5 -94c50.667 0 99.5 10.833 146.5 32.5s85.833 50.834 116.5 87.501h74c-35.333 -56.667 -83.333 -101 -144 -133s-125.667 -48 -195 -48c-116.667 0 -215.167 37.833 -295.5 113.5
s-120.5 168.834 -120.5 279.501c0 109.333 40.333 201.666 121 276.999s177 113 289 113c100.667 0 188.167 -30 262.5 -90s111.5 -137.667 111.5 -233c0 -67.333 -17.167 -124.333 -51.5 -171s-72.166 -81 -113.499 -103c-16.667 -8.66699 -33.167 -15.334 -49.5 -20.001
s-31.5 -7 -45.5 -7c-18 0 -33.667 5.16699 -47 15.5s-21 26.5 -23 48.5h-3c-14.667 -16.667 -33.5 -31.5 -56.5 -44.5s-47.167 -19.5 -72.5 -19.5c-46.667 0 -84.834 16.333 -114.501 49s-44.5 71.667 -44.5 117v8v9c4 67.333 28.667 129.333 74 186s104.333 85 177 85
c25.333 0 49 -6.16699 71 -18.5s39.333 -33.166 52 -62.499v0zM512.003 430.996c0 25.333 -8.83398 47.8311 -26.501 67.498s-38.167 29.5 -61.5 29.5c-40 0 -74.167 -15.5 -102.5 -46.5s-47.5 -64.833 -57.5 -101.5c-3.33301 -10 -5.66602 -19.667 -6.99902 -29
s-2 -18.666 -2 -27.999c0 -30 8.66699 -54.333 26 -73s40.333 -28 69 -28c34.667 0 65.167 14.667 91.5 44s45.5 61.333 57.5 96c4 12 7.16699 23.833 9.5 35.5s3.5 22.834 3.5 33.501v0z" />
    <glyph glyph-name="A" unicode="A" horiz-adv-x="740" 
d="M616 0l-69 177h-354l-69 -177h-105l309 760h84l309 -760h-105v0zM514 261l-144 373l-144 -373h288v0z" />
    <glyph glyph-name="B" unicode="B" horiz-adv-x="630" 
d="M76 0v760.002h198c37.333 0 69.5 -3.33301 96.5 -10s51.833 -18 74.5 -34c23.333 -16.667 42.833 -38.834 58.5 -66.501s23.5 -60.834 23.5 -99.501c0 -35.333 -8.66699 -65.666 -26 -90.999s-40.333 -45 -69 -59v-2c47.333 -6.66699 83.833 -27.334 109.5 -62.001
s38.5 -75 38.5 -121c0 -62 -22.167 -113.333 -66.5 -154s-98.5 -61 -162.5 -61h-275v0zM172 84.002h146c64.667 0 108.5 13 131.5 39s34.5 56.333 34.5 91c0 4 -0.166992 8 -0.5 12s-0.833008 8.33301 -1.5 13c-4.66699 26 -19.167 50.167 -43.5 72.5
s-64.5 33.5 -120.5 33.5h-146v-261v0zM172 429.002h120.001c39.333 0 72.333 10.667 99 32s40 50.333 40 87c0 19.333 -3.33301 37 -10 53s-16 29.333 -28 40c-12.667 11.333 -28.834 20 -48.501 26s-43.5 9 -71.5 9h-101v-247v0z" />
    <glyph glyph-name="C" unicode="C" horiz-adv-x="741" 
d="M714 675l-65 -71.002c-26.667 24.667 -56.834 43.834 -90.501 57.501s-68.834 20.5 -105.501 20.5c-79.333 0 -149.333 -28.5 -210 -85.5s-91 -129.167 -91 -216.5c0 -88.667 30.833 -161.167 92.5 -217.5s131.167 -84.5 208.5 -84.5c42 0 79.667 7.33301 113 22
s63.333 34.334 90 59.001l61 -69c-30 -27.333 -65.5 -49.833 -106.5 -67.5s-82.833 -28.5 -125.5 -32.5c-5.33301 0 -10.666 -0.166992 -15.999 -0.5s-10.666 -0.5 -15.999 -0.5c-119.333 0 -213.5 36.333 -282.5 109s-108.5 153 -118.5 241
c-0.666992 6.66699 -1.16699 13.5 -1.5 20.5s-0.5 13.833 -0.5 20.5s0.166992 13.5 0.5 20.5s0.833008 13.833 1.5 20.5c10 88 49.5 168.5 118.5 241.5s163.167 109.5 282.5 109.5c50.667 0 99.167 -9.16699 145.5 -27.5s84.833 -41.5 115.5 -69.5v0z" />
    <glyph glyph-name="D" unicode="D" horiz-adv-x="741" 
d="M76 0v760h250c93.333 0 177.5 -35.5 252.5 -106.5s112.5 -161.167 112.5 -270.5c0 -108.667 -37.833 -199.667 -113.5 -273s-167.5 -110 -275.5 -110h-226v0zM172 90l129.001 0.000976562c85.333 0 154.666 28.667 207.999 86s80 128 80 212
c0 81.333 -28.5 148.666 -85.5 201.999s-127.167 80 -210.5 80h-121v-580v0z" />
    <glyph glyph-name="E" unicode="E" horiz-adv-x="519" 
d="M76 0v760h393v-90h-297v-241h297v-90h-297v-249h297v-90h-393v0z" />
    <glyph glyph-name="F" unicode="F" horiz-adv-x="519" 
d="M76 0v760h393v-90h-297v-241h297v-90h-297v-339h-96v0z" />
    <glyph glyph-name="G" unicode="G" horiz-adv-x="906" 
d="M477 329l-0.00292969 89.999h383c0 -136.667 -40.167 -242.5 -120.5 -317.5s-173.833 -112.5 -280.5 -112.5c-119.333 0 -213.5 36.333 -282.5 109s-108.5 153 -118.5 241c-0.666992 6.66699 -1.16699 13.5 -1.5 20.5s-0.5 13.833 -0.5 20.5s0.166992 13.5 0.5 20.5
s0.833008 13.833 1.5 20.5c10 88 49.5 168.5 118.5 241.5s163.167 109.5 282.5 109.5c44.667 0 89.334 -7.5 134.001 -22.5s89.334 -41.833 134.001 -80.5l-61 -72c-18 17.333 -37.5 31.833 -58.5 43.5s-42.5 20.834 -64.5 27.501c-14 4.66699 -28.167 8.16699 -42.5 10.5
s-28.166 3.5 -41.499 3.5c-79.333 0 -149.333 -28.5 -210 -85.5s-91 -129.167 -91 -216.5c0 -88.667 30.833 -161.167 92.5 -217.5s131.167 -84.5 208.5 -84.5c68.667 0 131.167 22 187.5 66s92.5 105.667 108.5 185h-278v0z" />
    <glyph glyph-name="H" unicode="H" horiz-adv-x="741" 
d="M569 434v326h96v-760h-96v344h-397v-344h-96v760h96v-326h397v0z" />
    <glyph glyph-name="I" unicode="I" horiz-adv-x="240" 
d="M72 0v760h96v-760h-96v0z" />
    <glyph glyph-name="J" unicode="J" horiz-adv-x="463" 
d="M52 670v90.001h335v-513c0 -84.667 -26.5 -148.834 -79.5 -192.501s-123.167 -65.5 -210.5 -65.5c-12.667 0 -23.5 0.166992 -32.5 0.5s-16.833 0.833008 -23.5 1.5v87h33c74.667 0 129.5 13.5 164.5 40.5s52.5 76.833 52.5 149.5v402h-239v0z" />
    <glyph glyph-name="K" unicode="K" horiz-adv-x="630" 
d="M172 412l310 348h123l-341 -371l349 -389h-138l-303 347v-347h-96v760h96v-348v0z" />
    <glyph glyph-name="L" unicode="L" horiz-adv-x="463" 
d="M76 0v760h96v-670h267v-90h-363v0z" />
    <glyph glyph-name="M" unicode="M" horiz-adv-x="962" 
d="M481 186l309 574h96v-760h-96v563h-2l-307 -571l-307 571h-2v-563h-96v760h96l309 -574v0z" />
    <glyph glyph-name="N" unicode="N" horiz-adv-x="740" 
d="M572 172v588h96v-760h-90l-408 588h-2v-588h-96v760h90l408 -588h2v0z" />
    <glyph glyph-name="O" unicode="O" horiz-adv-x="906" 
d="M50 380c0 6.66699 0.166992 13.5 0.5 20.5s0.833008 13.833 1.5 20.5c10 88 49.5 168.5 118.5 241.5s163.167 109.5 282.5 109.5s213.5 -36.5 282.5 -109.5s108.5 -153.5 118.5 -241.5c0.666992 -6.66699 1.16699 -13.5 1.5 -20.5s0.5 -13.833 0.5 -20.5
s-0.166992 -13.5 -0.5 -20.5s-0.833008 -13.833 -1.5 -20.5c-10 -88 -49.5 -168.333 -118.5 -241s-163.167 -109 -282.5 -109s-213.5 36.333 -282.5 109s-108.5 153 -118.5 241c-0.666992 6.66699 -1.16699 13.5 -1.5 20.5s-0.5 13.833 -0.5 20.5v0zM152 380
c0 -90 30.833 -162.833 92.5 -218.5s131.167 -83.5 208.5 -83.5s146.833 27.833 208.5 83.5s92.5 128.5 92.5 218.5s-30.833 162.833 -92.5 218.5s-131.167 83.5 -208.5 83.5s-146.833 -27.833 -208.5 -83.5s-92.5 -128.5 -92.5 -218.5v0z" />
    <glyph glyph-name="P" unicode="P" horiz-adv-x="574" 
d="M76 0v760h210c80.667 0 143.667 -26 189 -78s68 -109.667 68 -173s-22.667 -120.833 -68 -172.5s-108.333 -77.5 -189 -77.5h-114v-259h-96v0zM172 343h94c57.333 0 101.833 14 133.5 42s47.5 69.333 47.5 124c0 55.333 -15.833 97 -47.5 125s-76.167 42 -133.5 42h-94
v-333v0z" />
    <glyph glyph-name="Q" unicode="Q" horiz-adv-x="906" 
d="M774 -19l-81.001 81c-31.333 -22.667 -67 -40.5 -107 -53.5s-84.333 -19.5 -133 -19.5c-119.333 0 -213.5 36.333 -282.5 109s-108.5 153 -118.5 241c-0.666992 6.66699 -1.16699 13.5 -1.5 20.5s-0.5 13.833 -0.5 20.5s0.166992 13.5 0.5 20.5s0.833008 13.833 1.5 20.5
c10 88 49.5 168.5 118.5 241.5s163.167 109.5 282.5 109.5s213.5 -36.5 282.5 -109.5s108.5 -153.5 118.5 -241.5c0.666992 -6.66699 1.16699 -13.5 1.5 -20.5s0.5 -13.833 0.5 -20.5c0 -6 -0.166992 -12 -0.5 -18s-0.833008 -12 -1.5 -18
c-3.33301 -39.333 -13.166 -78.333 -29.499 -117s-38.5 -74 -66.5 -106l78 -78l-62 -62v0zM607.999 270l79.999 -79c20.667 25.333 36.834 54 48.501 86s17.5 66.333 17.5 103c0 90 -30.833 162.833 -92.5 218.5s-131.167 83.5 -208.5 83.5s-146.833 -27.833 -208.5 -83.5
s-92.5 -128.5 -92.5 -218.5s30.833 -162.833 92.5 -218.5s131.167 -83.5 208.5 -83.5c30.667 0 60.5 4.66699 89.5 14s55.833 22.333 80.5 39l-77 77l62 62v0z" />
    <glyph glyph-name="R" unicode="R" horiz-adv-x="630" 
d="M480 0l-307.999 324v-324h-96v760h219c73.333 0 134.166 -20 182.499 -60s72.5 -96.667 72.5 -170c0 -68 -23 -122 -69 -162s-100 -61.667 -162 -65l296 -303h-135v0zM172.001 676l0.000976562 -293c6.66699 -0.666992 15.167 -1 25.5 -1h58.5
c73.333 0 124.666 14.167 153.999 42.5s44 63.166 44 104.499c0 44.667 -14.333 80.334 -43 107.001s-68 40 -118 40h-121v0z" />
    <glyph glyph-name="S" unicode="S" horiz-adv-x="574" 
d="M522 543l-90.001 0.000976562c-6.66699 45.333 -22.5 80.833 -47.5 106.5s-57.833 38.5 -98.5 38.5c-42.667 0 -74 -9.16699 -94 -27.5s-33 -38.5 -39 -60.5c-1.33301 -6 -2.33301 -12 -3 -18s-1 -11.667 -1 -17c0 -28.667 9.16699 -52.5 27.5 -71.5
s46.166 -35.5 83.499 -49.5l96 -36c60.667 -22.667 105.334 -51.5 134.001 -86.5s43 -75.5 43 -121.5c0 -61.333 -22.333 -111.833 -67 -151.5s-103.667 -59.5 -177 -59.5c-68.667 0 -125.667 18.333 -171 55s-71 93 -77 169h96c4 -41.333 17.833 -75.166 41.5 -101.499
s62.167 -39.5 115.5 -39.5c41.333 0 75.5 11.667 102.5 35s40.5 51.666 40.5 84.999c0 29.333 -11 54 -33 74s-50.333 36.667 -85 50l-97 38c-56.667 22 -99 50 -127 84s-42 75.333 -42 124c0 65.333 23.333 116.666 70 153.999s101.334 56 164.001 56
c63.333 0 117 -18.833 161 -56.5s68.667 -95.167 74 -172.5v0z" />
    <glyph glyph-name="T" unicode="T" horiz-adv-x="518" 
d="M211 0v670h-190v90h476v-90h-190v-670h-96v0z" />
    <glyph glyph-name="U" unicode="U" horiz-adv-x="740" 
d="M72 276v484h96v-456c0 -62 17 -115.167 51 -159.5s84.333 -66.5 151 -66.5s117 22.167 151 66.5s51 97.5 51 159.5v456h96v-484c0 -82 -28 -150.333 -84 -205s-128 -82 -216 -82c-86 0 -156.833 27.333 -212.5 82s-83.5 123 -83.5 205v0z" />
    <glyph glyph-name="V" unicode="V" horiz-adv-x="684" 
d="M343 153l218 607h102l-281 -760h-80l-281 760h102l218 -607h2v0z" />
    <glyph glyph-name="W" unicode="W" horiz-adv-x="1018" 
d="M729 181l170 579h102l-234 -760h-74l-183 602h-2l-183 -602h-74l-234 760h102l170 -577h2l173 577h90l173 -579h2v0z" />
    <glyph glyph-name="X" unicode="X" horiz-adv-x="684" 
d="M342 466l194 294h117l-252 -373l263 -387h-119l-203 307l-203 -307h-119l263 387l-252 373h117l194 -294v0z" />
    <glyph glyph-name="Y" unicode="Y" horiz-adv-x="630" 
d="M315 404l193 356h112l-257 -457v-303h-96v303l-257 457h112l193 -356v0z" />
    <glyph glyph-name="Z" unicode="Z" horiz-adv-x="630" 
d="M25 0l416 670h-379v90h543l-416 -670h396v-90h-560v0z" />
    <glyph glyph-name="bracketleft" unicode="[" horiz-adv-x="352" 
d="M116 -184v944h197v-74h-107v-796h107v-74h-197v0z" />
    <glyph glyph-name="backslash" unicode="\" horiz-adv-x="463" 
d="M364 -12l-344 784h79l344 -784h-79v0z" />
    <glyph glyph-name="bracketright" unicode="]" horiz-adv-x="352" 
d="M146 -110v796h-107v74h197v-944h-197v74h107v0z" />
    <glyph glyph-name="asciicircum" unicode="^" horiz-adv-x="600" 
d="M468 310l-168 345l-168 -345h-79l213 424h68l213 -424h-79v0z" />
    <glyph glyph-name="underscore" unicode="_" horiz-adv-x="500" 
d="M0 -125v50h500v-50h-500v0z" />
    <glyph glyph-name="grave" unicode="`" horiz-adv-x="240" 
d="M106 602l-131 124v8h121l81 -132h-71v0z" />
    <glyph glyph-name="a" unicode="a" horiz-adv-x="574" 
d="M419 295l0.00292969 53.999c0 36 -12.667 61.5 -38 76.5s-53.333 23.833 -84 26.5c-6 0.666992 -11.833 1.16699 -17.5 1.5s-11.167 0.5 -16.5 0.5c-12 0 -24 -0.666992 -36 -2s-24 -3.66602 -36 -6.99902c-12 -2.66699 -24 -6.33398 -36 -11.001s-24 -10 -36 -16l-39 75
c39.333 16.667 74.666 27.5 105.999 32.5s58.666 7.5 81.999 7.5c62.667 0 118.5 -14 167.5 -42s73.5 -73 73.5 -135v-356h-84v56c-22.667 -24 -47.334 -41.167 -74.001 -51.5s-57.334 -15.5 -92.001 -15.5c-63.333 0 -117 16.5 -161 49.5s-66 78.5 -66 136.5
c0 47.333 19.5 89 58.5 125s94.833 54 167.5 54c6.66699 0 13.167 -0.166992 19.5 -0.5s12.5 -1.16602 18.5 -2.49902c22 -2.66699 43.333 -8.5 64 -17.5s40.334 -21.833 59.001 -38.5v0zM422.003 170.999v2.5v3.5c-1.33301 24 -12.833 46.333 -34.5 67
s-59.167 31 -112.5 31c-52.667 0 -90 -10.333 -112 -31s-33.667 -43 -35 -67v-3.5v-2.5v-2.5v-3.5c1.33301 -24 13 -46.333 35 -67s59.333 -31 112 -31c53.333 0 90.833 10.333 112.5 31s33.167 43 34.5 67v3.5v2.5v0z" />
    <glyph glyph-name="b" unicode="b" horiz-adv-x="684" 
d="M75 0v759.999h90v-321h2c20.667 30 48.334 53 83.001 69s71 24.333 109 25h2.5h3.5c73.333 0 136.833 -25.667 190.5 -77s80.5 -114.666 80.5 -189.999c0 -82 -27.667 -148.667 -83 -200s-119.333 -77 -192 -77c-44.667 0 -83.334 8.5 -116.001 25.5
s-58.667 38.833 -78 65.5h-2v-80h-90v0zM540 264.999c0 4 -0.166992 8.00195 -0.5 12.002s-0.833008 8.33301 -1.5 13c-5.33301 39.333 -24.333 75.666 -57 108.999s-76.667 50 -132 50c-48.667 0 -91.5 -18.333 -128.5 -55s-55.5 -81.334 -55.5 -134.001
c0 -52 18.333 -96.333 55 -133s80.667 -55 132 -55c47.333 0 90.5 17.167 129.5 51.5s58.5 81.5 58.5 141.5v0z" />
    <glyph glyph-name="c" unicode="c" horiz-adv-x="519" 
d="M495 468l-60.999 -71c-18 17.333 -37 30.333 -57 39s-41.333 13 -64 13c-44.667 0 -84.5 -16.167 -119.5 -48.5s-52.5 -80.5 -52.5 -144.5c0 -52.667 17.167 -96.5 51.5 -131.5s77.5 -52.5 129.5 -52.5c21.333 0 42.166 5.16699 62.499 15.5s38.166 22.833 53.499 37.5
l53 -66c-23.333 -24 -50.833 -41.667 -82.5 -53s-64.167 -17 -97.5 -17c-80 0 -144.333 27 -193 81s-73 117 -73 189c0 74.667 25.833 139 77.5 193s114.834 81 189.501 81c38.667 0 73.5 -6.5 104.5 -19.5s56.167 -27.167 75.5 -42.5l1.5 -1.5l1.5 -1.5v0z" />
    <glyph glyph-name="d" unicode="d" horiz-adv-x="684" 
d="M519 439v321.001h90v-760h-90v80h-2c-18.667 -26.667 -44.334 -48.5 -77.001 -65.5s-71.667 -25.5 -117 -25.5c-72.667 0 -136.667 25.667 -192 77s-83 118 -83 200c0 75.333 26.833 138.666 80.5 189.999s117.167 77 190.5 77h3.5h2.5c38 -0.666992 74.333 -9 109 -25
s62.334 -39 83.001 -69h2v0zM519 260.001c0 52.667 -18.333 97.332 -55 133.999s-79.667 55 -129 55c-55.333 0 -99.333 -16.667 -132 -50s-51.667 -69.666 -57 -108.999c-0.666992 -4.66699 -1.16699 -9 -1.5 -13s-0.5 -8 -0.5 -12c0 -60 19.5 -107.167 58.5 -141.5
s82.167 -51.5 129.5 -51.5c51.333 0 95.333 18.333 132 55s55 81 55 133v0z" />
    <glyph glyph-name="e" unicode="e" horiz-adv-x="630" 
d="M495 156l68.999 -55.001c-34.667 -38.667 -71.167 -67 -109.5 -85s-80.166 -27 -125.499 -27c-92.667 0 -163.167 28 -211.5 84s-72.5 118.667 -72.5 188c0 74 24.5 137.833 73.5 191.5s114.167 80.5 195.5 80.5c80.667 0 146.334 -28.167 197.001 -84.5
s76 -130.5 76 -222.5h-446c7.33301 -44.667 27.666 -81.5 60.999 -110.5s75.333 -43.5 126 -43.5c32 0 62.167 7.33301 90.5 22s53.833 35.334 76.5 62.001v0zM140.999 299.999h344.001c-4.66699 43.333 -22.834 79 -54.501 107s-70.834 42 -117.501 42
c-50.667 0 -89.667 -13.667 -117 -41s-44.666 -57.333 -51.999 -90c-0.666992 -3.33301 -1.16699 -6.5 -1.5 -9.5s-0.833008 -5.83301 -1.5 -8.5v0z" />
    <glyph glyph-name="f" unicode="f" horiz-adv-x="296" 
d="M98 521v78.998c0 54.667 16.833 95.334 50.5 122.001s76.5 41.334 128.5 44.001v-90h-18c-22.667 0 -40.167 -8 -52.5 -24s-18.5 -35.667 -18.5 -59v-72h85v-79h-85v-442h-90v442h-79v79h79v0z" />
    <glyph glyph-name="g" unicode="g" horiz-adv-x="684" 
d="M512 439l-0.00292969 81.9961h90v-449c0 -95.333 -23.667 -167.666 -71 -216.999s-121.666 -74 -222.999 -74c-46 0 -89.167 8.83301 -129.5 26.5s-78.166 46.167 -113.499 85.5l72 56c13.333 -16 26.833 -29.5 40.5 -40.5s27.5 -20.167 41.5 -27.5
c16 -7.33301 31.667 -12.666 47 -15.999s30 -5 44 -5c70 0 121.167 16.5 153.5 49.5s48.5 78.167 48.5 135.5v37h-2c-24.667 -29.333 -51.667 -51.166 -81 -65.499s-69.333 -21.5 -120 -21.5c-73.333 0 -132 21.833 -176 65.5s-72.333 91.834 -85 144.501
c-2 10 -3.66699 20 -5 30s-2 20 -2 30c0 75.333 26.833 138.833 80.5 190.5s117.167 77.5 190.5 77.5h3.5h2.5c38 -0.666992 74.333 -9 109 -25s62.334 -39 83.001 -69h2v0zM511.997 259.996c0 52.667 -18.333 97.332 -55 133.999s-79.667 55 -129 55
c-55.333 0 -99.333 -16.667 -132 -50s-51.667 -69.666 -57 -108.999c-0.666992 -4.66699 -1.16699 -9 -1.5 -13s-0.5 -8 -0.5 -12c0 -60 19.667 -107 59 -141s82.333 -51 129 -51c51.333 0 95.333 18.167 132 54.5s55 80.5 55 132.5v0z" />
    <glyph glyph-name="h" unicode="h" horiz-adv-x="574" 
d="M415 0l-0.00195312 302.999c0 39.333 -9 73.5 -27 102.5s-49.333 43.5 -94 43.5c-42 0 -75 -13.667 -99 -41s-36 -65.666 -36 -114.999v-293h-90v760h90v-300h2c13.333 23.333 33.333 41.333 60 54s54.334 19 83.001 19c50.667 0 96.834 -15 138.501 -45
s62.5 -80.333 62.5 -151v-337h-90v0z" />
    <glyph glyph-name="i" unicode="i" horiz-adv-x="240" 
d="M75 0v521h90v-521h-90v0zM57 686c0 17.333 6.16699 32.166 18.5 44.499s27.166 18.5 44.499 18.5s32.166 -6.16699 44.499 -18.5s18.5 -27.166 18.5 -44.499s-6.16699 -32.166 -18.5 -44.499s-27.166 -18.5 -44.499 -18.5s-32.166 6.16699 -44.499 18.5
s-18.5 27.166 -18.5 44.499v0z" />
    <glyph glyph-name="j" unicode="j" horiz-adv-x="240" 
d="M75 -47v568h90v-559c0 -58.667 -14 -102.5 -42 -131.5s-65.667 -45.5 -113 -49.5v83c21.333 0.666992 37.5 9 48.5 25s16.5 37.667 16.5 65v-1zM57 686c0 17.333 6.16699 32.166 18.5 44.499s27.166 18.5 44.499 18.5s32.166 -6.16699 44.499 -18.5
s18.5 -27.166 18.5 -44.499s-6.16699 -32.166 -18.5 -44.499s-27.166 -18.5 -44.499 -18.5s-32.166 6.16699 -44.499 18.5s-18.5 27.166 -18.5 44.499v0z" />
    <glyph glyph-name="k" unicode="k" horiz-adv-x="519" 
d="M165 294l220 227h118l-241 -241l246 -280h-126l-217 253v-253h-90v760h90v-466v0z" />
    <glyph glyph-name="l" unicode="l" horiz-adv-x="240" 
d="M63 760l89.999 -0.000976562v-597c0 -29.333 6 -49.833 18 -61.5s25.333 -17.5 40 -17.5h27v-84h-37c-41.333 0 -74.666 12.333 -99.999 37s-38 64.334 -38 119.001v604v0z" />
    <glyph glyph-name="m" unicode="m" horiz-adv-x="906" 
d="M743 0l-0.00488281 319.005c0 45.333 -11.167 78.333 -33.5 99s-49.166 31 -80.499 31c-37.333 0 -68.5 -11.5 -93.5 -34.5s-37.5 -56.167 -37.5 -99.5v-315h-90v319c0 45.333 -11.167 78.333 -33.5 99s-49.166 31 -80.499 31c-37.333 0 -68.5 -11.5 -93.5 -34.5
s-37.5 -56.167 -37.5 -99.5v-315h-90v521h90v-62h2c9.33301 21.333 24.5 37.666 45.5 48.999s42.833 18.666 65.5 21.999c5.33301 1.33301 10.833 2.16602 16.5 2.49902s11.167 0.5 16.5 0.5c6.66699 0 13.334 -0.166992 20.001 -0.5s13.334 -1.16602 20.001 -2.49902
c20.667 -4 40.834 -12.333 60.501 -25s37.5 -33.334 53.5 -62.001c16 33.333 39.667 56.666 71 69.999s64.333 20 99 20c56 0 103.333 -16.833 142 -50.5s58 -84.834 58 -153.501v-329h-90v0z" />
    <glyph glyph-name="n" unicode="n" horiz-adv-x="574" 
d="M415 0l-0.00195312 302.999c0 39.333 -9 73.5 -27 102.5s-49.333 43.5 -94 43.5c-42 0 -75 -13.667 -99 -41s-36 -65.666 -36 -114.999v-293h-90v521h90v-61h2c13.333 23.333 33.333 41.333 60 54s54.334 19 83.001 19c50.667 0 96.834 -15 138.501 -45
s62.5 -80.333 62.5 -151v-337h-90v0z" />
    <glyph glyph-name="o" unicode="o" horiz-adv-x="684" 
d="M60 260c0 73.333 26.5 137.166 79.5 191.499s120.5 81.5 202.5 81.5s149.5 -27.167 202.5 -81.5s79.5 -118.166 79.5 -191.499c0 -74.667 -25.667 -138.5 -77 -191.5s-119.666 -79.5 -204.999 -79.5c-84.667 0 -152.834 26.5 -204.501 79.5s-77.5 116.833 -77.5 191.5v0z
M342 449c-50 0 -93.5 -18 -130.5 -54s-55.5 -81 -55.5 -135c0 -50 18.5 -93.833 55.5 -131.5s80.5 -56.5 130.5 -56.5s93.5 18.833 130.5 56.5s55.5 81.5 55.5 131.5c0 54 -18.5 99 -55.5 135s-80.5 54 -130.5 54v0z" />
    <glyph glyph-name="p" unicode="p" horiz-adv-x="684" 
d="M75 -220v740.999h90v-82h2c20.667 30 48.334 53 83.001 69s71 24.333 109 25h2.5h3.5c73.333 0 136.833 -25.667 190.5 -77s80.5 -114.666 80.5 -189.999c0 -82 -27.667 -148.667 -83 -200s-119.333 -77 -192 -77c-44.667 0 -83.334 8.5 -116.001 25.5
s-58.667 38.833 -78 65.5h-2v-300h-90v0zM540 264.999c0 4 -0.166992 8.00195 -0.5 12.002s-0.833008 8.33301 -1.5 13c-5.33301 39.333 -24.333 75.666 -57 108.999s-76.667 50 -132 50c-48.667 0 -91.5 -18.333 -128.5 -55s-55.5 -81.334 -55.5 -134.001
c0 -52 18.333 -96.333 55 -133s80.667 -55 132 -55c47.333 0 90.5 17.167 129.5 51.5s58.5 81.5 58.5 141.5v0z" />
    <glyph glyph-name="q" unicode="q" horiz-adv-x="684" 
d="M519 439v82.001h90v-741h-90v300h-2c-18.667 -26.667 -44.334 -48.5 -77.001 -65.5s-71.667 -25.5 -117 -25.5c-72.667 0 -136.667 25.667 -192 77s-83 118 -83 200c0 75.333 26.833 138.666 80.5 189.999s117.167 77 190.5 77h3.5h2.5c38 -0.666992 74.333 -9 109 -25
s62.334 -39 83.001 -69h2v0zM519 260.001c0 52.667 -18.333 97.332 -55 133.999s-79.667 55 -129 55c-55.333 0 -99.333 -16.667 -132 -50s-51.667 -69.666 -57 -108.999c-0.666992 -4.66699 -1.16699 -9 -1.5 -13s-0.5 -8 -0.5 -12c0 -60 19.5 -107.167 58.5 -141.5
s82.167 -51.5 129.5 -51.5c51.333 0 95.333 18.333 132 55s55 81 55 133v0z" />
    <glyph glyph-name="r" unicode="r" horiz-adv-x="352" 
d="M75 0l0.00195312 520.999h90v-74h2c1.33301 2 2.66602 4.16699 3.99902 6.5s2.66602 4.5 3.99902 6.5c20.667 34 42.834 54.667 66.501 62s53.5 11 89.5 11v-95c-6.66699 1.33301 -13.334 2.5 -20.001 3.5s-13.667 1.5 -21 1.5c-37.333 0 -67.5 -12.667 -90.5 -38
s-34.5 -61.666 -34.5 -108.999v-296h-90v0z" />
    <glyph glyph-name="s" unicode="s" horiz-adv-x="463" 
d="M39 152l83.998 0.00488281c3.33301 -28 15.333 -49.167 36 -63.5s44.667 -21.5 72 -21.5c31.333 0 54.5 5.5 69.5 16.5s24.833 22.833 29.5 35.5c1.33301 4 2.33301 8 3 12s1 7.66699 1 11c0 17.333 -6.5 31.666 -19.5 42.999s-37.167 21.666 -72.5 30.999l-91 25
c-38.667 10.667 -66 28 -82 52s-24 51.333 -24 82c0 43.333 15.833 80.5 47.5 111.5s77.834 46.5 138.501 46.5c62 0 106.5 -15.167 133.5 -45.5s41.833 -63.833 44.5 -100.5c0.666992 -2.66699 1 -5.33398 1 -8.00098v-8h-84c-3.33301 29.333 -12.833 51.333 -28.5 66
s-38.5 22 -68.5 22c-28.667 0 -51.5 -7.33301 -68.5 -22s-25.5 -32.334 -25.5 -53.001c0 -14.667 4.5 -27.334 13.5 -38.001s23.833 -19 44.5 -25l122 -35c41.333 -12 69.833 -29.333 85.5 -52s23.5 -50.667 23.5 -84c0 -52.667 -19.5 -92.667 -58.5 -120
s-82.5 -41 -130.5 -41c-60.667 0 -108.167 14.833 -142.5 44.5s-52.166 69.167 -53.499 118.5v0z" />
    <glyph glyph-name="t" unicode="t" horiz-adv-x="296" 
d="M91 521l0.000976562 126h90v-126h83v-79h-83v-320c0 -14 3 -23.833 9 -29.5s17.667 -8.5 35 -8.5h41v-83c-6.66699 -0.666992 -14.834 -1 -24.501 -1h-30.5c-46 0 -77.5 8.66699 -94.5 26s-25.5 46 -25.5 86v330h-72v79h72v0z" />
    <glyph glyph-name="u" unicode="u" horiz-adv-x="574" 
d="M415 0l-0.000976562 60.999h-2c-13.333 -23.333 -33.166 -41.166 -59.499 -53.499s-54.166 -18.5 -83.499 -18.5c-50.667 0 -96.834 14.833 -138.501 44.5s-62.5 79.834 -62.5 150.501v337h90v-303c0 -38.667 9 -72.667 27 -102s49.333 -44 94 -44c42 0 75 13.667 99 41
s36 65.666 36 114.999v293h90v-521h-90v0z" />
    <glyph glyph-name="v" unicode="v" horiz-adv-x="574" 
d="M287 120l165 401h102l-225 -521h-84l-225 521h102l165 -401v0z" />
    <glyph glyph-name="w" unicode="w" horiz-adv-x="852" 
d="M606 144l131 377h96l-192 -521h-74l-140 407h-2l-140 -407h-74l-192 521h96l131 -377h2l130 377h96l130 -377h2v0z" />
    <glyph glyph-name="x" unicode="x" horiz-adv-x="574" 
d="M287 333l147 188h114l-202 -255l210 -266h-120l-149 194l-155 -194h-114l210 266l-202 255h120l141 -188v0z" />
    <glyph glyph-name="y" unicode="y" horiz-adv-x="574" 
d="M128 -220l97 228l-217 513h102l167 -402l169 402h96l-320 -741h-94v0z" />
    <glyph glyph-name="z" unicode="z" horiz-adv-x="463" 
d="M21 0l272 442h-244v79h393l-270 -442h257v-79h-408v0z" />
    <glyph glyph-name="braceleft" unicode="{" horiz-adv-x="352" 
d="M65 257v61.998c27.333 0 47.833 13.5 61.5 40.5s20.5 56.833 20.5 89.5v182c0 40 10.5 71.333 31.5 94s43.833 34.334 68.5 35.001h1.5h1.5h67v-62h-34c-17.333 0 -29.333 -8.5 -36 -25.5s-10 -40.833 -10 -71.5v-170c0 -40 -7.83301 -71.5 -23.5 -94.5
s-35.167 -38.833 -58.5 -47.5v-2c23.333 -8.66699 42.833 -24.5 58.5 -47.5s23.5 -54.5 23.5 -94.5v-170c0 -30 3.33301 -53.5 10 -70.5s18.667 -25.5 36 -25.5l34 -1v-62h-67c-0.666992 0.666992 -1.16699 1 -1.5 1h-1.5c-24.667 0.666992 -47.5 12.334 -68.5 35.001
s-31.5 54 -31.5 94v181c0 32.667 -6.83301 62.5 -20.5 89.5s-34.167 40.5 -61.5 40.5v0z" />
    <glyph glyph-name="bar" unicode="|" horiz-adv-x="222" 
d="M74 -250v1000h74v-1000h-74v0z" />
    <glyph glyph-name="braceright" unicode="}" horiz-adv-x="352" 
d="M35 -184v62.002h34c17.333 0.666992 29.333 9.5 36 26.5s10 40.833 10 71.5v169c0 40 8 71.5 24 94.5s35.333 38.833 58 47.5v2c-22.667 8.66699 -42 24.5 -58 47.5s-24 54.5 -24 94.5v170c0 30.667 -3.33301 54.5 -10 71.5s-18.667 25.5 -36 25.5h-34v62h67h1.5h1.5
c24.667 -0.666992 47.5 -12.334 68.5 -35.001s31.5 -54 31.5 -94v-182c0 -32.667 7 -62.5 21 -89.5s34.333 -40.5 61 -40.5v-62c-26.667 0 -47 -13.5 -61 -40.5s-21 -56.833 -21 -89.5v-182c0 -39.333 -10.5 -70.333 -31.5 -93s-43.833 -34.334 -68.5 -35.001h-1.5h-1.5
l-67 -1v0z" />
    <glyph glyph-name="asciitilde" unicode="~" horiz-adv-x="600" 
d="M105 180l-35.999 56c14.667 27.333 32 48.5 52 63.5s44.333 22.5 73 22.5c8 0 16.167 -0.666992 24.5 -2s16.833 -3.33301 25.5 -6c11.333 -3.33301 22.5 -7.33301 33.5 -12s21.833 -9.66699 32.5 -15l54 -24c16.667 -7.33301 31 -11 43 -11c14 0 28.167 5.66699 42.5 17
s29.5 30.333 45.5 57l36 -56c-14.667 -26.667 -31.834 -47.667 -51.501 -63s-44.167 -23 -73.5 -23c-8 0 -16.167 0.666992 -24.5 2s-16.833 3.33301 -25.5 6c-11.333 3.33301 -22.5 7.33301 -33.5 12s-21.833 9.66699 -32.5 15c-18.667 9.33301 -36.5 17.5 -53.5 24.5
s-31.5 10.5 -43.5 10.5c-14 0 -28.167 -5.5 -42.5 -16.5s-29.5 -30.167 -45.5 -57.5v0z" />
    <glyph glyph-name="exclamdown" unicode="&#xa1;" horiz-adv-x="352" 
d="M128 -220v577h96v-577h-96v0zM110 482c0 18 6.5 33.5 19.5 46.5s28.5 19.5 46.5 19.5s33.5 -6.5 46.5 -19.5s19.5 -28.5 19.5 -46.5s-6.5 -33.5 -19.5 -46.5s-28.5 -19.5 -46.5 -19.5s-33.5 6.5 -46.5 19.5s-19.5 28.5 -19.5 46.5v0z" />
    <glyph glyph-name="cent" unicode="&#xa2;" horiz-adv-x="520" 
d="M201 -107l28.002 114.999c-53.333 19.333 -95.666 52.333 -126.999 99s-47 97.334 -47 152.001c0 74.667 25.833 139 77.5 193s114.834 81 189.501 81c6.66699 0 13 -0.166992 19 -0.5s11.667 -1.16602 17 -2.49902l24 96h52l-26 -107c18.667 -5.33301 35.5 -12 50.5 -20
s27.833 -16.333 38.5 -25c1.33301 -0.666992 2.66602 -1.5 3.99902 -2.5s2.66602 -2.16699 3.99902 -3.5l-61 -71c-6 6 -12.167 11.5 -18.5 16.5s-12.833 9.16699 -19.5 12.5c-3.33301 2 -6.5 3.66699 -9.5 5s-6.16699 2.66602 -9.5 3.99902l-88 -355
c5.33301 -1.33301 10.666 -2.33301 15.999 -3s11 -1 17 -1c21.333 0 42.166 5.16699 62.499 15.5s38.166 22.833 53.499 37.5l53 -66c-23.333 -24 -50.833 -41.667 -82.5 -53s-64.167 -17 -97.5 -17c-6.66699 0 -13.667 0.333008 -21 1s-14.666 1.66699 -21.999 3l-25 -104
h-52v0zM251.002 94.999l87 353c-1.33301 0.666992 -2.83301 1 -4.5 1h-5.5h-2.5h-2.5c-44.667 0 -84.5 -16.167 -119.5 -48.5s-52.5 -80.5 -52.5 -144.5c0 -36.667 9 -69.167 27 -97.5s42.333 -49.5 73 -63.5v0z" />
    <glyph glyph-name="sterling" unicode="&#xa3;" horiz-adv-x="520" 
d="M57 352v50.002h79c-11.333 13.333 -20.833 25.833 -28.5 37.5s-14.167 23.5 -19.5 35.5c-4.66699 12 -8.16699 24 -10.5 36s-3.5 24.333 -3.5 37c0 58 20 104.833 60 140.5s88 53.5 144 53.5c60.667 0 107.334 -15.833 140.001 -47.5s53.667 -76.834 63 -135.501h-96
c-4 27.333 -14.333 51.5 -31 72.5s-41.334 31.5 -74.001 31.5c-3.33301 0 -6.5 -0.166992 -9.5 -0.5s-5.83301 -0.5 -8.5 -0.5c-23.333 -3.33301 -44.5 -13.166 -63.5 -29.499s-28.5 -43.166 -28.5 -80.499c0 -20 6.16699 -41.833 18.5 -65.5s30.833 -51.834 55.5 -84.501
h175v-50h-143c10 -14.667 18.167 -30.167 24.5 -46.5s9.5 -34.166 9.5 -53.499c0 -7.33301 -0.833008 -14.833 -2.5 -22.5s-4.16699 -15.167 -7.5 -22.5c-5.33301 -12 -12.333 -24 -21 -36s-18.667 -23 -30 -33c19.333 0 35.833 -2.83301 49.5 -8.5
s26.834 -12.167 39.501 -19.5c1.33301 -0.666992 2.5 -1.33398 3.5 -2.00098s2.16699 -1.33398 3.5 -2.00098c11.333 -6 23 -11.5 35 -16.5s25.667 -7.5 41 -7.5c11.333 0 23.333 3 36 9s26 15 40 27v-99c-14.667 -9.33301 -29.5 -16 -44.5 -20s-29.5 -6 -43.5 -6
c-18 0 -35.833 3.33301 -53.5 10s-34.834 14.334 -51.501 23.001l-50 22.5c-16 7 -31.667 10.5 -47 10.5c-17.333 0 -31.833 -4.83301 -43.5 -14.5s-19.5 -24.5 -23.5 -44.5h-84c0 6.66699 0.666992 13.667 2 21s3.33301 14.666 6 21.999c8 22 21.5 42.667 40.5 62
s43.167 32 72.5 38c1.33301 0 4 2.66699 8 8s8.33301 12.333 13 21c4 6 7.5 12.667 10.5 20s5.5 14.666 7.5 21.999c1.33301 4 2.33301 8 3 12s1 8 1 12c0 22 -4.16699 42.5 -12.5 61.5s-19.5 36.5 -33.5 52.5h-117v0z" />
    <glyph glyph-name="currency" unicode="&#xa4;" horiz-adv-x="520" 
d="M406 557l55 53l43 -44l-53 -54c15.333 -19.333 27.5 -41.5 36.5 -66.5s13.5 -51.167 13.5 -78.5s-4.5 -53.5 -13.5 -78.5s-21.167 -47.5 -36.5 -67.5l53 -53l-43 -44l-55 53c-19.333 -16 -41.666 -28.5 -66.999 -37.5s-51.666 -13.5 -78.999 -13.5
s-53.666 4.5 -78.999 13.5s-47.666 21.5 -66.999 37.5l-55 -53l-43 44l53 53c-15.333 20 -27.5 42.5 -36.5 67.5s-13.5 51.167 -13.5 78.5s4.5 53.5 13.5 78.5s21.167 47.167 36.5 66.5l-53 54l43 44l55 -53c19.333 16 41.666 28.5 66.999 37.5s51.666 13.5 78.999 13.5
s53.666 -4.5 78.999 -13.5s47.666 -21.5 66.999 -37.5v0zM427 367c0 46.667 -16.167 86.167 -48.5 118.5s-71.833 48.5 -118.5 48.5s-86.167 -16.167 -118.5 -48.5s-48.5 -71.833 -48.5 -118.5s16.167 -86.167 48.5 -118.5s71.833 -48.5 118.5 -48.5
s86.167 16.167 118.5 48.5s48.5 71.833 48.5 118.5v0z" />
    <glyph glyph-name="yen" unicode="&#xa5;" horiz-adv-x="520" 
d="M218 0v180h-176v56h176v67l-17 37h-159v56h134l-155 338h96l143 -332l143 332h96l-155 -338h134v-56h-159l-17 -37v-67h176v-56h-176v-180h-84v0z" />
    <glyph glyph-name="brokenbar" unicode="&#xa6;" horiz-adv-x="222" 
d="M74 -175v350h74v-350h-74v0zM74 325v350h74v-350h-74v0z" />
    <glyph glyph-name="section" unicode="&#xa7;" horiz-adv-x="520" 
d="M57 -6l90 0.00292969c0.666992 -33.333 10.834 -58.5 30.501 -75.5s41.167 -27.167 64.5 -30.5c3.33301 0 6.5 -0.166992 9.5 -0.5s6.16699 -0.5 9.5 -0.5c30.667 0 55.667 8.33301 75 25s29 39.667 29 69c0 21.333 -6.16699 39.666 -18.5 54.999s-36.833 29 -73.5 41
l-75 25c-44.667 15.333 -80.167 37.666 -106.5 66.999s-39.5 67.666 -39.5 114.999c0 37.333 8.16699 69.5 24.5 96.5s41.5 50.167 75.5 69.5c-28.667 13.333 -51.334 32.333 -68.001 57s-25 53.334 -25 86.001c0 54 19.667 97.333 59 130s87.333 49 144 49
c55.333 0 101.5 -16 138.5 -48s56.833 -80.667 59.5 -146h-90c0 34.667 -9.66699 62.5 -29 83.5s-48.666 31.5 -87.999 31.5c-28 0 -52.333 -8.83301 -73 -26.5s-31 -38.167 -31 -61.5c0 -30.667 7.16699 -53.834 21.5 -69.501s36.833 -28.167 67.5 -37.5l99 -30
c48 -14.667 81.833 -38 101.5 -70s29.5 -68 29.5 -108c0 -38.667 -9.33301 -71.834 -28 -99.501s-44.667 -49.167 -78 -64.5c29.333 -12.667 53.166 -30.5 71.499 -53.5s27.5 -52.833 27.5 -89.5c0 -52.667 -19.667 -95 -59 -127s-85.333 -48 -138 -48
c-62 0 -108.5 14 -139.5 42s-51.167 58.667 -60.5 92c-2.66699 9.33301 -4.5 18.333 -5.5 27s-1.5 17.334 -1.5 26.001v-1zM372 288.003c0 38 -10.5 65.832 -31.5 83.499s-44.5 27.5 -70.5 29.5h-4.5h-5.5h-5.5h-4.5c-26 -2 -49.5 -11.833 -70.5 -29.5
s-31.5 -45.5 -31.5 -83.5s11 -65.667 33 -83s46 -27 72 -29h4h4h6.5c2.33301 0 4.5 0.333008 6.5 1c24.667 2 47.167 11.833 67.5 29.5s30.5 44.834 30.5 81.501v0z" />
    <glyph glyph-name="dieresis" unicode="&#xa8;" horiz-adv-x="240" 
d="M-36 665c0.666992 17.333 7 32.166 19 44.499s26.667 18.5 44 18.5s32.166 -6.16699 44.499 -18.5s18.5 -27.166 18.5 -44.499s-6.16699 -32.166 -18.5 -44.499s-27.166 -18.5 -44.499 -18.5s-32 6.16699 -44 18.5s-18 27.166 -18 44.499h-1zM150 665
c0 17.333 6.16699 32.166 18.5 44.499s27.166 18.5 44.499 18.5s32.166 -6.16699 44.499 -18.5s18.5 -27.166 18.5 -44.499s-6.16699 -32.166 -18.5 -44.499s-27.166 -18.5 -44.499 -18.5s-32.166 6.16699 -44.499 18.5s-18.5 27.166 -18.5 44.499v0z" />
    <glyph glyph-name="copyright" unicode="&#xa9;" horiz-adv-x="800" 
d="M8 380c0 108 38.333 200.333 115 277s169 115 277 115s200.333 -38.333 277 -115s115 -169 115 -277s-38.333 -200.167 -115 -276.5s-169 -114.5 -277 -114.5s-200.333 38.167 -277 114.5s-115 168.5 -115 276.5v0zM724 380c0 89.333 -31.667 165.666 -95 228.999
s-139.666 95 -228.999 95s-165.666 -31.667 -228.999 -95s-95 -139.666 -95 -228.999s31.667 -165.666 95 -228.999s139.666 -95 228.999 -95s165.666 31.667 228.999 95s95 139.666 95 228.999v0zM536 307l70.999 0.000976562c-10 -51.333 -32.667 -91.833 -68 -121.5
s-77 -44.5 -125 -44.5c-70.667 0 -127 23.167 -169 69.5s-63 103.5 -63 171.5c0 69.333 20.5 126.333 61.5 171s96.833 67 167.5 67c49.333 0 92.5 -13.667 129.5 -41s59.167 -67.333 66.5 -120h-71c-6 28 -20 51.5 -42 70.5s-49.333 28.5 -82 28.5
c-48.667 0 -86 -17 -112 -51s-39 -75.333 -39 -124c0 -46.667 13.833 -88.334 41.5 -125.001s64.834 -55 111.501 -55c33.333 0 61 10.167 83 30.5s35 44.833 39 73.5v0z" />
    <glyph glyph-name="ordfeminine" unicode="&#xaa;" horiz-adv-x="373" 
d="M260 602v20.998c0 20.667 -7.5 35.5 -22.5 44.5s-31.5 14.5 -49.5 16.5c-4 0.666992 -8.33301 1.16699 -13 1.5s-9 0.5 -13 0.5c-14.667 0 -29.5 -1.66699 -44.5 -5s-30.5 -8.66602 -46.5 -15.999l-25 53c25.333 10 48.333 16.5 69 19.5s38.334 4.5 53.001 4.5
c42 0 79.167 -8.33301 111.5 -25s48.5 -43.667 48.5 -81v-217h-58v34c-14.667 -14.667 -30.667 -25.167 -48 -31.5s-37.333 -9.5 -60 -9.5c-40.667 0 -75.334 10.167 -104.001 30.5s-43 48.833 -43 85.5c0 30.667 12.5 56.5 37.5 77.5s60.5 31.5 106.5 31.5
c7.33301 0 15 -0.5 23 -1.5s16 -2.83301 24 -5.5c9.33301 -2.66699 18.5 -6.16699 27.5 -10.5s17.833 -10.166 26.5 -17.499v0zM261 522.998c0 2 -0.166016 4 -0.499023 6s-0.833008 4.33301 -1.5 7c-3.33301 11.333 -11.833 21.666 -25.5 30.999s-34.5 14 -62.5 14
c-26.667 0 -46.834 -4.66699 -60.501 -14s-22.167 -19.666 -25.5 -30.999c-0.666992 -2.66699 -1.16699 -5 -1.5 -7s-0.5 -4 -0.5 -6v-4c0 -1.33301 0.333008 -2.33301 1 -3c2 -12 9.83301 -23 23.5 -33s35.167 -15 64.5 -15s50.833 5 64.5 15s21.5 21 23.5 33
c0.666992 0.666992 1 1.66699 1 3v4v0z" />
    <glyph glyph-name="guillemotleft" unicode="&#xab;" horiz-adv-x="520" 
d="M68 276l107 192h84l-112 -192l112 -192h-84l-107 192v0zM270 276l107 192h84l-112 -192l112 -192h-84l-107 192v0z" />
    <glyph glyph-name="logicalnot" unicode="&#xac;" horiz-adv-x="600" 
d="M479 108v210h-432v74h506v-284h-74v0z" />
    <glyph glyph-name="sfthyphen" unicode="&#xad;" horiz-adv-x="500" 
 />
    <glyph glyph-name="registered" unicode="&#xae;" horiz-adv-x="800" 
d="M8 380c0 108 38.333 200.333 115 277s169 115 277 115s200.333 -38.333 277 -115s115 -169 115 -277s-38.333 -200.167 -115 -276.5s-169 -114.5 -277 -114.5s-200.333 38.167 -277 114.5s-115 168.5 -115 276.5v0zM724 380c0 89.333 -31.667 165.666 -95 228.999
s-139.666 95 -228.999 95s-165.666 -31.667 -228.999 -95s-95 -139.666 -95 -228.999s31.667 -165.666 95 -228.999s139.666 -95 228.999 -95s165.666 31.667 228.999 95s95 139.666 95 228.999v0zM508 154l-117.999 197.003h-72v-197h-68v452h171
c53.333 0 93.166 -10.333 119.499 -31s39.5 -53.334 39.5 -98.001c0 -40.667 -11 -70.334 -33 -89.001s-49.667 -30.334 -83 -35.001l129 -199h-85v0zM318.001 407.003l92 0.000976562c35.333 0 61.166 5.66699 77.499 17s24.5 29.333 24.5 54
c0 25.333 -8.16699 43.666 -24.5 54.999s-42.166 17 -77.499 17h-92v-143v0z" />
    <glyph glyph-name="overstore" unicode="&#xaf;" 
 />
    <glyph glyph-name="degree" unicode="&#xb0;" horiz-adv-x="400" 
d="M57 599c0 39.333 14 73 42 101s61.667 42 101 42s73 -14 101 -42s42 -61.667 42 -101s-14 -73 -42 -101s-61.667 -42 -101 -42s-73 14 -101 42s-42 61.667 -42 101v0zM107 599c0 -25.333 9.16699 -47.166 27.5 -65.499s40.166 -27.5 65.499 -27.5
s47.166 9.16699 65.499 27.5s27.5 40.166 27.5 65.499s-9.16699 47.166 -27.5 65.499s-40.166 27.5 -65.499 27.5s-47.166 -9.16699 -65.499 -27.5s-27.5 -40.166 -27.5 -65.499v0z" />
    <glyph glyph-name="plusminus" unicode="&#xb1;" horiz-adv-x="600" 
d="M47 0v74h506v-74h-506v0zM263 345v161h74v-161h216v-74h-216v-161h-74v161h-216v74h216v0z" />
    <glyph glyph-name="twosuperior" unicode="&#xb2;" horiz-adv-x="337" 
d="M103 611h-74.001c1.33301 40.667 14.5 72.667 39.5 96s57.833 35 98.5 35c34.667 0 65.334 -9.33301 92.001 -28s40 -46 40 -82v-3.5v-3.5c-0.666992 -12.667 -4.16699 -26.167 -10.5 -40.5s-17.166 -32.833 -32.499 -55.5l-110 -164h146v-68h-275l165 237
c13.333 18.667 23.5 35 30.5 49s11.167 27.333 12.5 40v3.5v2.5c0 11.333 -5.16699 21.5 -15.5 30.5s-21.833 13.833 -34.5 14.5h-1.5h-1.5c-16.667 0 -31.834 -4.5 -45.501 -13.5s-21.5 -25.5 -23.5 -49.5v0z" />
    <glyph glyph-name="threesuperior" unicode="&#xb3;" horiz-adv-x="337" 
d="M48 510l134.997 176.002h-154v56h270l-130 -165c37.333 0 70 -11.833 98 -35.5s42 -57.167 42 -100.5c0 -42 -15.667 -76.5 -47 -103.5s-67.666 -40.5 -108.999 -40.5c-30.667 0 -57 4.33301 -79 13s-43 27.334 -63 56.001c-0.666992 1.33301 -1.5 2.66602 -2.5 3.99902
s-1.83301 2.66602 -2.5 3.99902l50 37c10 -18 22.667 -31.167 38 -39.5s33.333 -12.5 54 -12.5c2.66699 0 5.33398 0.166992 8.00098 0.5s5.33398 0.5 8.00098 0.5c19.333 3.33301 37 11.666 53 24.999s24 30.333 24 51c0 26 -9.16699 47.667 -27.5 65
s-42.166 26 -71.499 26c-2.66699 0 -5.5 -0.166992 -8.5 -0.5s-5.83301 -0.5 -8.5 -0.5c-12.667 -2 -24.834 -5.5 -36.501 -10.5s-21.5 -10.833 -29.5 -17.5l-11 12v0z" />
    <glyph glyph-name="acute" unicode="&#xb4;" horiz-adv-x="240" 
d="M63 602l81 132h121v-8l-131 -124h-71v0z" />
    <glyph glyph-name="mu" unicode="&#xb5;" horiz-adv-x="574" 
d="M415 0l-0.00195312 61h-2c-13.333 -23.333 -33.166 -41.166 -59.499 -53.499s-54.166 -18.5 -83.499 -18.5c-25.333 0 -47.5 3.83301 -66.5 11.5s-33.167 19.5 -42.5 35.5h-2v-256h-90v741h90v-303c0 -38.667 9 -72.667 27 -102s49.333 -44 94 -44c42 0 75 13.667 99 41
s36 65.666 36 114.999v293h90v-521h-90v0z" />
    <glyph glyph-name="paragraph" unicode="&#xb6;" horiz-adv-x="600" 
d="M426 -181l-0.000976562 879h-119v-879h-74v567c-63.333 0 -114.666 17.667 -153.999 53s-59 79 -59 131c0 66 21 114.167 63 144.5s98 45.5 168 45.5h249v-941h-74v0z" />
    <glyph glyph-name="middot" unicode="&#xb7;" 
 />
    <glyph glyph-name="cedilla" unicode="&#xb8;" horiz-adv-x="240" 
d="M29 -196l-26.001 48.001c33.333 8.66699 60.5 22.5 81.5 41.5s37.833 46.167 50.5 81.5l87 -32c-18.667 -44.667 -43.667 -77.334 -75 -98.001s-70.666 -34 -117.999 -40v-1z" />
    <glyph glyph-name="onesuperior" unicode="&#xb9;" horiz-adv-x="264" 
d="M24 594v68l160 80v-445h-74v347l-86 -50v0z" />
    <glyph glyph-name="ordmasculine" unicode="&#xba;" horiz-adv-x="444" 
d="M34 576c0 44.667 17.5 83.5 52.5 116.5s80.167 49.5 135.5 49.5s100.5 -16.5 135.5 -49.5s52.5 -71.833 52.5 -116.5s-17 -83.167 -51 -115.5s-79.667 -48.5 -137 -48.5s-103 16.167 -137 48.5s-51 70.833 -51 115.5v0zM108 575c0 -28.667 10.835 -53.668 32.502 -75.001
s48.834 -32 81.501 -32c33.333 0 60.666 10.667 81.999 32s32 46.333 32 75c0 30.667 -11.333 55.834 -34 75.501s-49.334 29.5 -80.001 29.5s-57.334 -10 -80.001 -30s-34 -45 -34 -75v0z" />
    <glyph glyph-name="guillemotright" unicode="&#xbb;" horiz-adv-x="520" 
d="M171 276l-112 192h84l107 -192l-107 -192h-84l112 192v0zM373 276l-112 192h84l107 -192l-107 -192h-84l112 192v0z" />
    <glyph glyph-name="onequarter" unicode="&#xbc;" horiz-adv-x="778" 
d="M114 -8l418 750h79l-418 -750h-79v0zM602 0v105h-191v28l241 312h18v-284h48v-56h-48v-105h-68v0zM602 161v145h-2l-105 -145h107v0zM39 594v68l160 80v-445h-74v347l-86 -50v0z" />
    <glyph glyph-name="onehalf" unicode="&#xbd;" horiz-adv-x="778" 
d="M88 -8l418 750h79l-418 -750h-79v0zM522 314h-74.001c1.33301 40.667 14.5 72.667 39.5 96s57.833 35 98.5 35c34.667 0 65.334 -9.33301 92.001 -28s40 -46 40 -82v-3.5v-3.5c-0.666992 -12.667 -4.16699 -26.167 -10.5 -40.5s-17.166 -32.833 -32.499 -55.5l-110 -164
h146v-68h-275l165 237c13.333 18.667 23.5 35 30.5 49s11.167 27.333 12.5 40v3.5v2.5c0 11.333 -5.16699 21.5 -15.5 30.5s-21.833 13.833 -34.5 14.5h-1.5h-1.5c-16.667 0 -31.834 -4.5 -45.501 -13.5s-21.5 -25.5 -23.5 -49.5v0zM23.999 594v68l160 80v-445h-74v347
l-86 -50v0z" />
    <glyph glyph-name="threequarters" unicode="&#xbe;" horiz-adv-x="778" 
d="M149 -8l418 750h79l-418 -750h-79v0zM602 0v105h-191v28l241 312h18v-284h48v-56h-48v-105h-68v0zM602 161v145h-2l-105 -145h107v0zM66 510l134.997 176.002h-154v56h270l-130 -165c37.333 0 70 -11.833 98 -35.5s42 -57.167 42 -100.5c0 -42 -15.667 -76.5 -47 -103.5
s-67.666 -40.5 -108.999 -40.5c-30.667 0 -57 4.33301 -79 13s-43 27.334 -63 56.001c-0.666992 1.33301 -1.5 2.66602 -2.5 3.99902s-1.83301 2.66602 -2.5 3.99902l50 37c10 -18 22.667 -31.167 38 -39.5s33.333 -12.5 54 -12.5c2.66699 0 5.33398 0.166992 8.00098 0.5
s5.33398 0.5 8.00098 0.5c19.333 3.33301 37 11.666 53 24.999s24 30.333 24 51c0 26 -9.16699 47.667 -27.5 65s-42.166 26 -71.499 26c-2.66699 0 -5.5 -0.166992 -8.5 -0.5s-5.83301 -0.5 -8.5 -0.5c-12.667 -2 -24.834 -5.5 -36.501 -10.5s-21.5 -10.833 -29.5 -17.5
l-11 12v0z" />
    <glyph glyph-name="questiondown" unicode="&#xbf;" horiz-adv-x="520" 
d="M257 357l90.002 0.00195312c0 -62.667 -5.5 -110.667 -16.5 -144s-32.167 -63.666 -63.5 -90.999c-2.66699 -2 -5.16699 -4 -7.5 -6s-4.83301 -4 -7.5 -6l-54 -42c-2.66699 -2.66699 -5.33398 -5 -8.00098 -7s-5.33398 -4.33301 -8.00098 -7
c-11.333 -10.667 -19.5 -22 -24.5 -34s-7.5 -26.333 -7.5 -43c0 -30.667 10 -57 30 -79s45.667 -33 77 -33c39.333 0 68 12.5 86 37.5s27 54.167 27 87.5l96 -1c-4 -60.667 -24.167 -110.5 -60.5 -149.5s-86.5 -58.5 -150.5 -58.5c-62 0 -111 20 -147 60s-54 86.667 -54 140
c0 18.667 2.16699 36.334 6.5 53.001s12.5 33 24.5 49c5.33301 7.33301 11.833 14.666 19.5 21.999s16.5 15 26.5 23l59 46c4.66699 3.33301 9 6.66602 13 9.99902s7.66699 6.66602 11 9.99902c16.667 15.333 28 33.666 34 54.999s9 57.333 9 108v0zM236.002 482.002
c0 18 6.5 33.5 19.5 46.5s28.5 19.5 46.5 19.5s33.5 -6.5 46.5 -19.5s19.5 -28.5 19.5 -46.5s-6.5 -33.5 -19.5 -46.5s-28.5 -19.5 -46.5 -19.5s-33.5 6.5 -46.5 19.5s-19.5 28.5 -19.5 46.5v0z" />
    <glyph glyph-name="Agrave" unicode="&#xc0;" horiz-adv-x="740" 
d="M616 0l-69 177h-354l-69 -177h-105l309 760h84l309 -760h-105v0zM514 261l-144 373l-144 -373h288v0zM356 797l-131 124v8h121l81 -132h-71v0z" />
    <glyph glyph-name="Aacute" unicode="&#xc1;" horiz-adv-x="740" 
d="M616 0l-69 177h-354l-69 -177h-105l309 760h84l309 -760h-105v0zM514 261l-144 373l-144 -373h288v0zM313 797l81 132h121v-8l-131 -124h-71v0z" />
    <glyph glyph-name="Acircumflex" unicode="&#xc2;" horiz-adv-x="740" 
d="M616 0l-69 177h-354l-69 -177h-105l309 760h84l309 -760h-105v0zM514 261l-144 373l-144 -373h288v0zM446 797l-76 76l-76 -76h-74l96 132h108l96 -132h-74v0z" />
    <glyph glyph-name="Atilde" unicode="&#xc3;" horiz-adv-x="740" 
d="M616 0l-69 177h-354l-69 -177h-105l309 760h84l309 -760h-105v0zM514 261l-144 373l-144 -373h288v0zM258 806h-40.999c1.33301 30.667 8.16602 56.834 20.499 78.501s32.833 32.5 61.5 32.5c3.33301 0 6.5 -0.166992 9.5 -0.5s6.16699 -0.833008 9.5 -1.5
c10.667 -1.33301 21.334 -4 32.001 -8s20.667 -8 30 -12l35 -16c10.667 -4.66699 19.334 -7 26.001 -7c2 0 4.33301 0.333008 7 1s5.33398 1.66699 8.00098 3c6 2.66699 11.5 7.16699 16.5 13.5s8.16699 14.833 9.5 25.5h41
c-0.666992 -30.667 -7.33398 -56.834 -20.001 -78.501s-33.334 -32.5 -62.001 -32.5c-3.33301 0 -6.5 0.166992 -9.5 0.5s-6.16699 0.833008 -9.5 1.5c-10.667 1.33301 -21.334 4 -32.001 8s-20.667 8.33301 -30 13l-34.5 15c-10.333 4.66699 -19.166 7 -26.499 7
c-2 0 -4.33301 -0.333008 -7 -1s-5.33398 -1.66699 -8.00098 -3c-6 -2.66699 -11.5 -7.16699 -16.5 -13.5s-8.16699 -14.833 -9.5 -25.5v0z" />
    <glyph glyph-name="Adieresis" unicode="&#xc4;" horiz-adv-x="740" 
d="M616 0l-69 177h-354l-69 -177h-105l309 760h84l309 -760h-105v0zM514 261l-144 373l-144 -373h288v0zM214 870c0 17.333 6.16699 32.166 18.5 44.499s27.166 18.5 44.499 18.5s32.166 -6.16699 44.499 -18.5s18.5 -27.166 18.5 -44.499s-6.16699 -32.166 -18.5 -44.499
s-27.166 -18.5 -44.499 -18.5s-32.166 6.16699 -44.499 18.5s-18.5 27.166 -18.5 44.499v0zM400 870c0 17.333 6.16699 32.166 18.5 44.499s27.166 18.5 44.499 18.5s32.166 -6.16699 44.499 -18.5s18.5 -27.166 18.5 -44.499s-6.16699 -32.166 -18.5 -44.499
s-27.166 -18.5 -44.499 -18.5s-32.166 6.16699 -44.499 18.5s-18.5 27.166 -18.5 44.499v0z" />
    <glyph glyph-name="Aring" unicode="&#xc5;" horiz-adv-x="740" 
d="M616 0l-69 177h-354l-69 -177h-105l309 760h84l309 -760h-105v0zM514 261l-144 373l-144 -373h288v0zM277 872c0 25.333 9.16699 47.166 27.5 65.499s40.166 27.5 65.499 27.5s47.166 -9.16699 65.499 -27.5s27.5 -40.166 27.5 -65.499s-9.16699 -47.166 -27.5 -65.499
s-40.166 -27.5 -65.499 -27.5s-47.166 9.16699 -65.499 27.5s-27.5 40.166 -27.5 65.499v0zM319 872c0 -14 5 -26 15 -36s22 -15 36 -15s26 5 36 15s15 22 15 36s-5 26 -15 36s-22 15 -36 15s-26 -5 -36 -15s-15 -22 -15 -36v0z" />
    <glyph glyph-name="AE" unicode="&#xc6;" horiz-adv-x="963" 
d="M527 0v177h-299l-101 -177h-108l446 760h448v-90h-290v-241h290v-90h-290v-249h290v-90h-386v0zM527 261v431h-2l-249 -431h251v0z" />
    <glyph glyph-name="Ccedilla" unicode="&#xc7;" horiz-adv-x="741" 
d="M332 -196l-26.001 48.001c33.333 8.66699 60.5 22.5 81.5 41.5s37.833 46.167 50.5 81.5l87 -32c-18.667 -44.667 -43.667 -77.334 -75 -98.001s-70.666 -34 -117.999 -40v-1zM713.999 675.001l-65 -71.002c-26.667 24.667 -56.834 43.834 -90.501 57.501
s-68.834 20.5 -105.501 20.5c-79.333 0 -149.333 -28.5 -210 -85.5s-91 -129.167 -91 -216.5c0 -88.667 30.833 -161.167 92.5 -217.5s131.167 -84.5 208.5 -84.5c42 0 79.667 7.33301 113 22s63.333 34.334 90 59.001l61 -69c-30 -27.333 -65.5 -49.833 -106.5 -67.5
s-82.833 -28.5 -125.5 -32.5c-5.33301 0 -10.666 -0.166992 -15.999 -0.5s-10.666 -0.5 -15.999 -0.5c-119.333 0 -213.5 36.333 -282.5 109s-108.5 153 -118.5 241c-0.666992 6.66699 -1.16699 13.5 -1.5 20.5s-0.5 13.833 -0.5 20.5s0.166992 13.5 0.5 20.5
s0.833008 13.833 1.5 20.5c10 88 49.5 168.5 118.5 241.5s163.167 109.5 282.5 109.5c50.667 0 99.167 -9.16699 145.5 -27.5s84.833 -41.5 115.5 -69.5v0z" />
    <glyph glyph-name="Egrave" unicode="&#xc8;" horiz-adv-x="519" 
d="M76 0v760h393v-90h-297v-241h297v-90h-297v-249h297v-90h-393v0zM264 797l-131 124v8h121l81 -132h-71v0z" />
    <glyph glyph-name="Eacute" unicode="&#xc9;" horiz-adv-x="519" 
d="M76 0v760h393v-90h-297v-241h297v-90h-297v-249h297v-90h-393v0zM221 797l81 132h121v-8l-131 -124h-71v0z" />
    <glyph glyph-name="Ecircumflex" unicode="&#xca;" horiz-adv-x="519" 
d="M76 0v760h393v-90h-297v-241h297v-90h-297v-249h297v-90h-393v0zM354 797l-76 76l-76 -76h-74l96 132h108l96 -132h-74v0z" />
    <glyph glyph-name="Edieresis" unicode="&#xcb;" horiz-adv-x="519" 
d="M76 0v760h393v-90h-297v-241h297v-90h-297v-249h297v-90h-393v0zM122 870c0 17.333 6.16699 32.166 18.5 44.499s27.166 18.5 44.499 18.5s32.166 -6.16699 44.499 -18.5s18.5 -27.166 18.5 -44.499s-6.16699 -32.166 -18.5 -44.499s-27.166 -18.5 -44.499 -18.5
s-32.166 6.16699 -44.499 18.5s-18.5 27.166 -18.5 44.499v0zM308 870c0 17.333 6.16699 32.166 18.5 44.499s27.166 18.5 44.499 18.5s32.166 -6.16699 44.499 -18.5s18.5 -27.166 18.5 -44.499s-6.16699 -32.166 -18.5 -44.499s-27.166 -18.5 -44.499 -18.5
s-32.166 6.16699 -44.499 18.5s-18.5 27.166 -18.5 44.499v0z" />
    <glyph glyph-name="Igrave" unicode="&#xcc;" horiz-adv-x="240" 
d="M72 0v760h96v-760h-96v0zM106 797l-131 124v8h121l81 -132h-71v0z" />
    <glyph glyph-name="Iacute" unicode="&#xcd;" horiz-adv-x="240" 
d="M72 0v760h96v-760h-96v0zM63 797l81 132h121v-8l-131 -124h-71v0z" />
    <glyph glyph-name="Icircumflex" unicode="&#xce;" horiz-adv-x="240" 
d="M72 0v760h96v-760h-96v0zM196 797l-76 76l-76 -76h-74l96 132h108l96 -132h-74v0z" />
    <glyph glyph-name="Idieresis" unicode="&#xcf;" horiz-adv-x="240" 
d="M72 0v760h96v-760h-96v0zM-36 870c0.666992 17.333 7 32.166 19 44.499s26.667 18.5 44 18.5s32.166 -6.16699 44.499 -18.5s18.5 -27.166 18.5 -44.499s-6.16699 -32.166 -18.5 -44.499s-27.166 -18.5 -44.499 -18.5s-32 6.16699 -44 18.5s-18 27.166 -18 44.499h-1z
M150 870c0 17.333 6.16699 32.166 18.5 44.499s27.166 18.5 44.499 18.5s32.166 -6.16699 44.499 -18.5s18.5 -27.166 18.5 -44.499s-6.16699 -32.166 -18.5 -44.499s-27.166 -18.5 -44.499 -18.5s-32.166 6.16699 -44.499 18.5s-18.5 27.166 -18.5 44.499v0z" />
    <glyph glyph-name="Eth" unicode="&#xd0;" horiz-adv-x="741" 
d="M76 429v331h250c93.333 0 177.5 -35.5 252.5 -106.5s112.5 -161.167 112.5 -270.5c0 -108.667 -37.833 -199.667 -113.5 -273s-167.5 -110 -275.5 -110h-226v345h-56v84h56v0zM172 90l129.001 0.000976562c85.333 0 154.666 28.667 207.999 86s80 128 80 212
c0 81.333 -28.5 148.666 -85.5 201.999s-127.167 80 -210.5 80h-121v-241h172v-84h-172v-255v0z" />
    <glyph glyph-name="Ntilde" unicode="&#xd1;" horiz-adv-x="740" 
d="M572 172v588h96v-760h-90l-408 588h-2v-588h-96v760h90l408 -588h2v0zM258 806h-40.999c1.33301 30.667 8.16602 56.834 20.499 78.501s32.833 32.5 61.5 32.5c3.33301 0 6.5 -0.166992 9.5 -0.5s6.16699 -0.833008 9.5 -1.5c10.667 -1.33301 21.334 -4 32.001 -8
s20.667 -8 30 -12l35 -16c10.667 -4.66699 19.334 -7 26.001 -7c2 0 4.33301 0.333008 7 1s5.33398 1.66699 8.00098 3c6 2.66699 11.5 7.16699 16.5 13.5s8.16699 14.833 9.5 25.5h41c-0.666992 -30.667 -7.33398 -56.834 -20.001 -78.501s-33.334 -32.5 -62.001 -32.5
c-3.33301 0 -6.5 0.166992 -9.5 0.5s-6.16699 0.833008 -9.5 1.5c-10.667 1.33301 -21.334 4 -32.001 8s-20.667 8.33301 -30 13l-34.5 15c-10.333 4.66699 -19.166 7 -26.499 7c-2 0 -4.33301 -0.333008 -7 -1s-5.33398 -1.66699 -8.00098 -3
c-6 -2.66699 -11.5 -7.16699 -16.5 -13.5s-8.16699 -14.833 -9.5 -25.5v0z" />
    <glyph glyph-name="Ograve" unicode="&#xd2;" 
 />
    <glyph glyph-name="Oacute" unicode="&#xd3;" horiz-adv-x="906" 
d="M50 380c0 6.66699 0.166992 13.5 0.5 20.5s0.833008 13.833 1.5 20.5c10 88 49.5 168.5 118.5 241.5s163.167 109.5 282.5 109.5s213.5 -36.5 282.5 -109.5s108.5 -153.5 118.5 -241.5c0.666992 -6.66699 1.16699 -13.5 1.5 -20.5s0.5 -13.833 0.5 -20.5
s-0.166992 -13.5 -0.5 -20.5s-0.833008 -13.833 -1.5 -20.5c-10 -88 -49.5 -168.333 -118.5 -241s-163.167 -109 -282.5 -109s-213.5 36.333 -282.5 109s-108.5 153 -118.5 241c-0.666992 6.66699 -1.16699 13.5 -1.5 20.5s-0.5 13.833 -0.5 20.5v0zM152 380
c0 -90 30.833 -162.833 92.5 -218.5s131.167 -83.5 208.5 -83.5s146.833 27.833 208.5 83.5s92.5 128.5 92.5 218.5s-30.833 162.833 -92.5 218.5s-131.167 83.5 -208.5 83.5s-146.833 -27.833 -208.5 -83.5s-92.5 -128.5 -92.5 -218.5v0zM396 797l81 132h121v-8l-131 -124
h-71v0z" />
    <glyph glyph-name="Ocircumflex" unicode="&#xd4;" horiz-adv-x="906" 
d="M50 380c0 6.66699 0.166992 13.5 0.5 20.5s0.833008 13.833 1.5 20.5c10 88 49.5 168.5 118.5 241.5s163.167 109.5 282.5 109.5s213.5 -36.5 282.5 -109.5s108.5 -153.5 118.5 -241.5c0.666992 -6.66699 1.16699 -13.5 1.5 -20.5s0.5 -13.833 0.5 -20.5
s-0.166992 -13.5 -0.5 -20.5s-0.833008 -13.833 -1.5 -20.5c-10 -88 -49.5 -168.333 -118.5 -241s-163.167 -109 -282.5 -109s-213.5 36.333 -282.5 109s-108.5 153 -118.5 241c-0.666992 6.66699 -1.16699 13.5 -1.5 20.5s-0.5 13.833 -0.5 20.5v0zM152 380
c0 -90 30.833 -162.833 92.5 -218.5s131.167 -83.5 208.5 -83.5s146.833 27.833 208.5 83.5s92.5 128.5 92.5 218.5s-30.833 162.833 -92.5 218.5s-131.167 83.5 -208.5 83.5s-146.833 -27.833 -208.5 -83.5s-92.5 -128.5 -92.5 -218.5v0zM529 797l-76 76l-76 -76h-74
l96 132h108l96 -132h-74v0z" />
    <glyph glyph-name="Otilde" unicode="&#xd5;" horiz-adv-x="906" 
d="M50 380c0 6.66699 0.166992 13.5 0.5 20.5s0.833008 13.833 1.5 20.5c10 88 49.5 168.5 118.5 241.5s163.167 109.5 282.5 109.5s213.5 -36.5 282.5 -109.5s108.5 -153.5 118.5 -241.5c0.666992 -6.66699 1.16699 -13.5 1.5 -20.5s0.5 -13.833 0.5 -20.5
s-0.166992 -13.5 -0.5 -20.5s-0.833008 -13.833 -1.5 -20.5c-10 -88 -49.5 -168.333 -118.5 -241s-163.167 -109 -282.5 -109s-213.5 36.333 -282.5 109s-108.5 153 -118.5 241c-0.666992 6.66699 -1.16699 13.5 -1.5 20.5s-0.5 13.833 -0.5 20.5v0zM152 380
c0 -90 30.833 -162.833 92.5 -218.5s131.167 -83.5 208.5 -83.5s146.833 27.833 208.5 83.5s92.5 128.5 92.5 218.5s-30.833 162.833 -92.5 218.5s-131.167 83.5 -208.5 83.5s-146.833 -27.833 -208.5 -83.5s-92.5 -128.5 -92.5 -218.5v0zM341 806h-40.999
c1.33301 30.667 8.16602 56.834 20.499 78.501s32.833 32.5 61.5 32.5c3.33301 0 6.5 -0.166992 9.5 -0.5s6.16699 -0.833008 9.5 -1.5c10.667 -1.33301 21.334 -4 32.001 -8s20.667 -8 30 -12l35 -16c10.667 -4.66699 19.334 -7 26.001 -7c2 0 4.33301 0.333008 7 1
s5.33398 1.66699 8.00098 3c6 2.66699 11.5 7.16699 16.5 13.5s8.16699 14.833 9.5 25.5h41c-0.666992 -30.667 -7.33398 -56.834 -20.001 -78.501s-33.334 -32.5 -62.001 -32.5c-3.33301 0 -6.5 0.166992 -9.5 0.5s-6.16699 0.833008 -9.5 1.5
c-10.667 1.33301 -21.334 4 -32.001 8s-20.667 8.33301 -30 13l-34.5 15c-10.333 4.66699 -19.166 7 -26.499 7c-2 0 -4.33301 -0.333008 -7 -1s-5.33398 -1.66699 -8.00098 -3c-6 -2.66699 -11.5 -7.16699 -16.5 -13.5s-8.16699 -14.833 -9.5 -25.5v0z" />
    <glyph glyph-name="Odieresis" unicode="&#xd6;" horiz-adv-x="906" 
d="M50 380c0 6.66699 0.166992 13.5 0.5 20.5s0.833008 13.833 1.5 20.5c10 88 49.5 168.5 118.5 241.5s163.167 109.5 282.5 109.5s213.5 -36.5 282.5 -109.5s108.5 -153.5 118.5 -241.5c0.666992 -6.66699 1.16699 -13.5 1.5 -20.5s0.5 -13.833 0.5 -20.5
s-0.166992 -13.5 -0.5 -20.5s-0.833008 -13.833 -1.5 -20.5c-10 -88 -49.5 -168.333 -118.5 -241s-163.167 -109 -282.5 -109s-213.5 36.333 -282.5 109s-108.5 153 -118.5 241c-0.666992 6.66699 -1.16699 13.5 -1.5 20.5s-0.5 13.833 -0.5 20.5v0zM152 380
c0 -90 30.833 -162.833 92.5 -218.5s131.167 -83.5 208.5 -83.5s146.833 27.833 208.5 83.5s92.5 128.5 92.5 218.5s-30.833 162.833 -92.5 218.5s-131.167 83.5 -208.5 83.5s-146.833 -27.833 -208.5 -83.5s-92.5 -128.5 -92.5 -218.5v0zM297 870
c0 17.333 6.16699 32.166 18.5 44.499s27.166 18.5 44.499 18.5s32.166 -6.16699 44.499 -18.5s18.5 -27.166 18.5 -44.499s-6.16699 -32.166 -18.5 -44.499s-27.166 -18.5 -44.499 -18.5s-32.166 6.16699 -44.499 18.5s-18.5 27.166 -18.5 44.499v0zM483 870
c0 17.333 6.16699 32.166 18.5 44.499s27.166 18.5 44.499 18.5s32.166 -6.16699 44.499 -18.5s18.5 -27.166 18.5 -44.499s-6.16699 -32.166 -18.5 -44.499s-27.166 -18.5 -44.499 -18.5s-32.166 6.16699 -44.499 18.5s-18.5 27.166 -18.5 44.499v0z" />
    <glyph glyph-name="multiply" unicode="&#xd7;" horiz-adv-x="600" 
d="M300 304l178 178l51 -51l-178 -178l178 -178l-51 -51l-178 178l-178 -178l-51 51l178 178l-178 178l51 51l178 -178v0z" />
    <glyph glyph-name="Oslash" unicode="&#xd8;" horiz-adv-x="906" 
d="M69 9l92 99c-31.333 32 -56.333 68.5 -75 109.5s-30 82.5 -34 124.5c-0.666992 6.66699 -1.16699 13.167 -1.5 19.5s-0.5 12.5 -0.5 18.5c0 6.66699 0.166992 13.5 0.5 20.5s0.833008 13.833 1.5 20.5c10 88 49.5 168.5 118.5 241.5s163.167 109.5 282.5 109.5
c51.333 0 97.666 -7.33301 138.999 -22s78 -34.667 110 -60l93 100l42 -39l-92 -99c32.667 -33.333 58.167 -71 76.5 -113s29.5 -84.667 33.5 -128c0 -5.33301 0.166992 -10.5 0.5 -15.5s0.5 -10.167 0.5 -15.5c0 -6.66699 -0.166992 -13.5 -0.5 -20.5
s-0.833008 -13.833 -1.5 -20.5c-10 -88 -49.5 -168.333 -118.5 -241s-163.167 -109 -282.5 -109c-50.667 0 -97.167 7.16699 -139.5 21.5s-79.166 33.833 -110.499 58.5l-92 -99l-42 39v0zM679 581l-410.001 -441c26.667 -19.333 55.834 -34.5 87.501 -45.5
s63.834 -16.5 96.501 -16.5c77.333 0 146.833 27.833 208.5 83.5s92.5 128.5 92.5 218.5c0 40.667 -6.83301 78 -20.5 112s-31.834 63.667 -54.501 89v0zM226.999 179l409.998 441.001c-26.667 20 -55.667 35.333 -87 46s-63.666 16 -96.999 16
c-77.333 0 -146.833 -27.833 -208.5 -83.5s-92.5 -128.5 -92.5 -218.5c0 -40 6.83301 -76.833 20.5 -110.5s31.834 -63.834 54.501 -90.501v0z" />
    <glyph glyph-name="Ugrave" unicode="&#xd9;" horiz-adv-x="740" 
d="M72 276v484h96v-456c0 -62 17 -115.167 51 -159.5s84.333 -66.5 151 -66.5s117 22.167 151 66.5s51 97.5 51 159.5v456h96v-484c0 -82 -28 -150.333 -84 -205s-128 -82 -216 -82c-86 0 -156.833 27.333 -212.5 82s-83.5 123 -83.5 205v0zM356 797l-131 124v8h121l81 -132
h-71v0z" />
    <glyph glyph-name="Uacute" unicode="&#xda;" horiz-adv-x="740" 
d="M72 276v484h96v-456c0 -62 17 -115.167 51 -159.5s84.333 -66.5 151 -66.5s117 22.167 151 66.5s51 97.5 51 159.5v456h96v-484c0 -82 -28 -150.333 -84 -205s-128 -82 -216 -82c-86 0 -156.833 27.333 -212.5 82s-83.5 123 -83.5 205v0zM313 797l81 132h121v-8
l-131 -124h-71v0z" />
    <glyph glyph-name="Ucircumflex" unicode="&#xdb;" horiz-adv-x="740" 
d="M72 276v484h96v-456c0 -62 17 -115.167 51 -159.5s84.333 -66.5 151 -66.5s117 22.167 151 66.5s51 97.5 51 159.5v456h96v-484c0 -82 -28 -150.333 -84 -205s-128 -82 -216 -82c-86 0 -156.833 27.333 -212.5 82s-83.5 123 -83.5 205v0zM446 797l-76 76l-76 -76h-74
l96 132h108l96 -132h-74v0z" />
    <glyph glyph-name="Udieresis" unicode="&#xdc;" horiz-adv-x="740" 
d="M72 276v484h96v-456c0 -62 17 -115.167 51 -159.5s84.333 -66.5 151 -66.5s117 22.167 151 66.5s51 97.5 51 159.5v456h96v-484c0 -82 -28 -150.333 -84 -205s-128 -82 -216 -82c-86 0 -156.833 27.333 -212.5 82s-83.5 123 -83.5 205v0zM214 870
c0 17.333 6.16699 32.166 18.5 44.499s27.166 18.5 44.499 18.5s32.166 -6.16699 44.499 -18.5s18.5 -27.166 18.5 -44.499s-6.16699 -32.166 -18.5 -44.499s-27.166 -18.5 -44.499 -18.5s-32.166 6.16699 -44.499 18.5s-18.5 27.166 -18.5 44.499v0zM400 870
c0 17.333 6.16699 32.166 18.5 44.499s27.166 18.5 44.499 18.5s32.166 -6.16699 44.499 -18.5s18.5 -27.166 18.5 -44.499s-6.16699 -32.166 -18.5 -44.499s-27.166 -18.5 -44.499 -18.5s-32.166 6.16699 -44.499 18.5s-18.5 27.166 -18.5 44.499v0z" />
    <glyph glyph-name="Yacute" unicode="&#xdd;" 
 />
    <glyph glyph-name="Thorn" unicode="&#xde;" horiz-adv-x="574" 
d="M76 0v760h96v-111h114c80.667 0 143.667 -26 189 -78s68 -109.667 68 -173s-22.667 -120.833 -68 -172.5s-108.333 -77.5 -189 -77.5h-114v-148h-96v0zM172 232h94c57.333 0 101.833 14 133.5 42s47.5 69.333 47.5 124c0 55.333 -15.833 97 -47.5 125
s-76.167 42 -133.5 42h-94v-333v0z" />
    <glyph glyph-name="germandbls" unicode="&#xdf;" horiz-adv-x="630" 
d="M245 10l22.002 81c11.333 -6.66699 23.666 -11.334 36.999 -14.001s26.666 -4 39.999 -4h1.5h1.5c35.333 0.666992 67.833 14.667 97.5 42s44.5 65.333 44.5 114c0 48 -16.833 86.333 -50.5 115s-76.167 43 -127.5 43h-22v79h24c27.333 0 50.333 10 69 30
s28 46.333 28 79c0 33.333 -10.167 59.5 -30.5 78.5s-47.166 28.5 -80.499 28.5c-32.667 0 -59.334 -10.667 -80.001 -32s-31 -56.666 -31 -105.999v-544h-90v442h-72v79h72v45c0 55.333 17.5 102.5 52.5 141.5s86.167 58.5 153.5 58.5c50.667 0 91.5 -13.167 122.5 -39.5
s52.167 -55.5 63.5 -87.5c3.33301 -9.33301 5.83301 -18.666 7.5 -27.999s2.5 -18.333 2.5 -27c0 -32.667 -6.83301 -61 -20.5 -85s-33.167 -42.667 -58.5 -56v-2c49.333 -6.66699 89 -28.834 119 -66.501s45 -82.5 45 -134.5c0 -72.667 -22.667 -131.667 -68 -177
s-104.333 -68 -177 -68c-14.667 0 -30 1 -46 3s-32.333 6 -49 12v0z" />
    <glyph glyph-name="agrave" unicode="&#xe0;" horiz-adv-x="574" 
d="M419 295l0.00292969 53.999c0 36 -12.667 61.5 -38 76.5s-53.333 23.833 -84 26.5c-6 0.666992 -11.833 1.16699 -17.5 1.5s-11.167 0.5 -16.5 0.5c-12 0 -24 -0.666992 -36 -2s-24 -3.66602 -36 -6.99902c-12 -2.66699 -24 -6.33398 -36 -11.001s-24 -10 -36 -16l-39 75
c39.333 16.667 74.666 27.5 105.999 32.5s58.666 7.5 81.999 7.5c62.667 0 118.5 -14 167.5 -42s73.5 -73 73.5 -135v-356h-84v56c-22.667 -24 -47.334 -41.167 -74.001 -51.5s-57.334 -15.5 -92.001 -15.5c-63.333 0 -117 16.5 -161 49.5s-66 78.5 -66 136.5
c0 47.333 19.5 89 58.5 125s94.833 54 167.5 54c6.66699 0 13.167 -0.166992 19.5 -0.5s12.5 -1.16602 18.5 -2.49902c22 -2.66699 43.333 -8.5 64 -17.5s40.334 -21.833 59.001 -38.5v0zM422.003 170.999v2.5v3.5c-1.33301 24 -12.833 46.333 -34.5 67
s-59.167 31 -112.5 31c-52.667 0 -90 -10.333 -112 -31s-33.667 -43 -35 -67v-3.5v-2.5v-2.5v-3.5c1.33301 -24 13 -46.333 35 -67s59.333 -31 112 -31c53.333 0 90.833 10.333 112.5 31s33.167 43 34.5 67v3.5v2.5v0zM279.003 601.999l-131 124v8h121l81 -132h-71v0z" />
    <glyph glyph-name="aacute" unicode="&#xe1;" horiz-adv-x="574" 
d="M419 295l0.00292969 53.999c0 36 -12.667 61.5 -38 76.5s-53.333 23.833 -84 26.5c-6 0.666992 -11.833 1.16699 -17.5 1.5s-11.167 0.5 -16.5 0.5c-12 0 -24 -0.666992 -36 -2s-24 -3.66602 -36 -6.99902c-12 -2.66699 -24 -6.33398 -36 -11.001s-24 -10 -36 -16l-39 75
c39.333 16.667 74.666 27.5 105.999 32.5s58.666 7.5 81.999 7.5c62.667 0 118.5 -14 167.5 -42s73.5 -73 73.5 -135v-356h-84v56c-22.667 -24 -47.334 -41.167 -74.001 -51.5s-57.334 -15.5 -92.001 -15.5c-63.333 0 -117 16.5 -161 49.5s-66 78.5 -66 136.5
c0 47.333 19.5 89 58.5 125s94.833 54 167.5 54c6.66699 0 13.167 -0.166992 19.5 -0.5s12.5 -1.16602 18.5 -2.49902c22 -2.66699 43.333 -8.5 64 -17.5s40.334 -21.833 59.001 -38.5v0zM422.003 170.999v2.5v3.5c-1.33301 24 -12.833 46.333 -34.5 67
s-59.167 31 -112.5 31c-52.667 0 -90 -10.333 -112 -31s-33.667 -43 -35 -67v-3.5v-2.5v-2.5v-3.5c1.33301 -24 13 -46.333 35 -67s59.333 -31 112 -31c53.333 0 90.833 10.333 112.5 31s33.167 43 34.5 67v3.5v2.5v0zM236.003 601.999l81 132h121v-8l-131 -124h-71v0z" />
    <glyph glyph-name="acircumflex" unicode="&#xe2;" horiz-adv-x="574" 
d="M419 295l0.00292969 53.999c0 36 -12.667 61.5 -38 76.5s-53.333 23.833 -84 26.5c-6 0.666992 -11.833 1.16699 -17.5 1.5s-11.167 0.5 -16.5 0.5c-12 0 -24 -0.666992 -36 -2s-24 -3.66602 -36 -6.99902c-12 -2.66699 -24 -6.33398 -36 -11.001s-24 -10 -36 -16l-39 75
c39.333 16.667 74.666 27.5 105.999 32.5s58.666 7.5 81.999 7.5c62.667 0 118.5 -14 167.5 -42s73.5 -73 73.5 -135v-356h-84v56c-22.667 -24 -47.334 -41.167 -74.001 -51.5s-57.334 -15.5 -92.001 -15.5c-63.333 0 -117 16.5 -161 49.5s-66 78.5 -66 136.5
c0 47.333 19.5 89 58.5 125s94.833 54 167.5 54c6.66699 0 13.167 -0.166992 19.5 -0.5s12.5 -1.16602 18.5 -2.49902c22 -2.66699 43.333 -8.5 64 -17.5s40.334 -21.833 59.001 -38.5v0zM422.003 170.999v2.5v3.5c-1.33301 24 -12.833 46.333 -34.5 67
s-59.167 31 -112.5 31c-52.667 0 -90 -10.333 -112 -31s-33.667 -43 -35 -67v-3.5v-2.5v-2.5v-3.5c1.33301 -24 13 -46.333 35 -67s59.333 -31 112 -31c53.333 0 90.833 10.333 112.5 31s33.167 43 34.5 67v3.5v2.5v0zM369.003 601.999l-76 76l-76 -76h-74l96 132h108
l96 -132h-74v0z" />
    <glyph glyph-name="atilde" unicode="&#xe3;" horiz-adv-x="574" 
d="M419 295l0.00292969 53.999c0 36 -12.667 61.5 -38 76.5s-53.333 23.833 -84 26.5c-6 0.666992 -11.833 1.16699 -17.5 1.5s-11.167 0.5 -16.5 0.5c-12 0 -24 -0.666992 -36 -2s-24 -3.66602 -36 -6.99902c-12 -2.66699 -24 -6.33398 -36 -11.001s-24 -10 -36 -16l-39 75
c39.333 16.667 74.666 27.5 105.999 32.5s58.666 7.5 81.999 7.5c62.667 0 118.5 -14 167.5 -42s73.5 -73 73.5 -135v-356h-84v56c-22.667 -24 -47.334 -41.167 -74.001 -51.5s-57.334 -15.5 -92.001 -15.5c-63.333 0 -117 16.5 -161 49.5s-66 78.5 -66 136.5
c0 47.333 19.5 89 58.5 125s94.833 54 167.5 54c6.66699 0 13.167 -0.166992 19.5 -0.5s12.5 -1.16602 18.5 -2.49902c22 -2.66699 43.333 -8.5 64 -17.5s40.334 -21.833 59.001 -38.5v0zM422.003 170.999v2.5v3.5c-1.33301 24 -12.833 46.333 -34.5 67
s-59.167 31 -112.5 31c-52.667 0 -90 -10.333 -112 -31s-33.667 -43 -35 -67v-3.5v-2.5v-2.5v-3.5c1.33301 -24 13 -46.333 35 -67s59.333 -31 112 -31c53.333 0 90.833 10.333 112.5 31s33.167 43 34.5 67v3.5v2.5v0zM181.003 610.999h-40.999
c1.33301 30.667 8.16602 56.834 20.499 78.501s32.833 32.5 61.5 32.5c3.33301 0 6.5 -0.166992 9.5 -0.5s6.16699 -0.833008 9.5 -1.5c10.667 -1.33301 21.334 -4 32.001 -8s20.667 -8 30 -12l35 -16c10.667 -4.66699 19.334 -7 26.001 -7c2 0 4.33301 0.333008 7 1
s5.33398 1.66699 8.00098 3c6 2.66699 11.5 7.16699 16.5 13.5s8.16699 14.833 9.5 25.5h41c-0.666992 -30.667 -7.33398 -56.834 -20.001 -78.501s-33.334 -32.5 -62.001 -32.5c-3.33301 0 -6.5 0.166992 -9.5 0.5s-6.16699 0.833008 -9.5 1.5
c-10.667 1.33301 -21.334 4 -32.001 8s-20.667 8.33301 -30 13l-34.5 15c-10.333 4.66699 -19.166 7 -26.499 7c-2 0 -4.33301 -0.333008 -7 -1s-5.33398 -1.66699 -8.00098 -3c-6 -2.66699 -11.5 -7.16699 -16.5 -13.5s-8.16699 -14.833 -9.5 -25.5v0z" />
    <glyph glyph-name="adieresis" unicode="&#xe4;" horiz-adv-x="574" 
d="M419 295l0.00292969 53.999c0 36 -12.667 61.5 -38 76.5s-53.333 23.833 -84 26.5c-6 0.666992 -11.833 1.16699 -17.5 1.5s-11.167 0.5 -16.5 0.5c-12 0 -24 -0.666992 -36 -2s-24 -3.66602 -36 -6.99902c-12 -2.66699 -24 -6.33398 -36 -11.001s-24 -10 -36 -16l-39 75
c39.333 16.667 74.666 27.5 105.999 32.5s58.666 7.5 81.999 7.5c62.667 0 118.5 -14 167.5 -42s73.5 -73 73.5 -135v-356h-84v56c-22.667 -24 -47.334 -41.167 -74.001 -51.5s-57.334 -15.5 -92.001 -15.5c-63.333 0 -117 16.5 -161 49.5s-66 78.5 -66 136.5
c0 47.333 19.5 89 58.5 125s94.833 54 167.5 54c6.66699 0 13.167 -0.166992 19.5 -0.5s12.5 -1.16602 18.5 -2.49902c22 -2.66699 43.333 -8.5 64 -17.5s40.334 -21.833 59.001 -38.5v0zM422.003 170.999v2.5v3.5c-1.33301 24 -12.833 46.333 -34.5 67
s-59.167 31 -112.5 31c-52.667 0 -90 -10.333 -112 -31s-33.667 -43 -35 -67v-3.5v-2.5v-2.5v-3.5c1.33301 -24 13 -46.333 35 -67s59.333 -31 112 -31c53.333 0 90.833 10.333 112.5 31s33.167 43 34.5 67v3.5v2.5v0zM137.003 664.999c0 17.333 6.16699 32.166 18.5 44.499
s27.166 18.5 44.499 18.5s32.166 -6.16699 44.499 -18.5s18.5 -27.166 18.5 -44.499s-6.16699 -32.166 -18.5 -44.499s-27.166 -18.5 -44.499 -18.5s-32.166 6.16699 -44.499 18.5s-18.5 27.166 -18.5 44.499v0zM323.003 664.999c0 17.333 6.16699 32.166 18.5 44.499
s27.166 18.5 44.499 18.5s32.166 -6.16699 44.499 -18.5s18.5 -27.166 18.5 -44.499s-6.16699 -32.166 -18.5 -44.499s-27.166 -18.5 -44.499 -18.5s-32.166 6.16699 -44.499 18.5s-18.5 27.166 -18.5 44.499v0z" />
    <glyph glyph-name="aring" unicode="&#xe5;" horiz-adv-x="574" 
d="M419 295l0.00292969 53.999c0 36 -12.667 61.5 -38 76.5s-53.333 23.833 -84 26.5c-6 0.666992 -11.833 1.16699 -17.5 1.5s-11.167 0.5 -16.5 0.5c-12 0 -24 -0.666992 -36 -2s-24 -3.66602 -36 -6.99902c-12 -2.66699 -24 -6.33398 -36 -11.001s-24 -10 -36 -16l-39 75
c39.333 16.667 74.666 27.5 105.999 32.5s58.666 7.5 81.999 7.5c62.667 0 118.5 -14 167.5 -42s73.5 -73 73.5 -135v-356h-84v56c-22.667 -24 -47.334 -41.167 -74.001 -51.5s-57.334 -15.5 -92.001 -15.5c-63.333 0 -117 16.5 -161 49.5s-66 78.5 -66 136.5
c0 47.333 19.5 89 58.5 125s94.833 54 167.5 54c6.66699 0 13.167 -0.166992 19.5 -0.5s12.5 -1.16602 18.5 -2.49902c22 -2.66699 43.333 -8.5 64 -17.5s40.334 -21.833 59.001 -38.5v0zM422.003 170.999v2.5v3.5c-1.33301 24 -12.833 46.333 -34.5 67
s-59.167 31 -112.5 31c-52.667 0 -90 -10.333 -112 -31s-33.667 -43 -35 -67v-3.5v-2.5v-2.5v-3.5c1.33301 -24 13 -46.333 35 -67s59.333 -31 112 -31c53.333 0 90.833 10.333 112.5 31s33.167 43 34.5 67v3.5v2.5v0zM200.003 672.999c0 25.333 9.16699 47.166 27.5 65.499
s40.166 27.5 65.499 27.5s47.166 -9.16699 65.499 -27.5s27.5 -40.166 27.5 -65.499s-9.16699 -47.166 -27.5 -65.499s-40.166 -27.5 -65.499 -27.5s-47.166 9.16699 -65.499 27.5s-27.5 40.166 -27.5 65.499v0zM242.003 672.999c0 -14 5 -26 15 -36s22 -15 36 -15
s26 5 36 15s15 22 15 36s-5 26 -15 36s-22 15 -36 15s-26 -5 -36 -15s-15 -22 -15 -36v0z" />
    <glyph glyph-name="ae" unicode="&#xe6;" horiz-adv-x="963" 
d="M422 295l0.000976562 53.999c0 36 -12.667 61.5 -38 76.5s-53.333 23.833 -84 26.5c-6 0.666992 -11.833 1.16699 -17.5 1.5s-11.167 0.5 -16.5 0.5c-12 0 -24 -0.666992 -36 -2s-24 -3.66602 -36 -6.99902c-12 -2.66699 -24 -6.33398 -36 -11.001s-24 -10 -36 -16
l-39 75c39.333 16.667 74.666 27.5 105.999 32.5s58.666 7.5 81.999 7.5c60.667 0 107.5 -9.33301 140.5 -28s58.833 -43.667 77.5 -75c14.667 27.333 37.5 50.333 68.5 69s63.5 29.667 97.5 33c3.33301 0.666992 6.5 1 9.5 1h8.5c79.333 0 141.666 -27.833 186.999 -83.5
s68 -119.834 68 -192.501v-31h-413c2 -44 19.333 -80.667 52 -110s73 -44 121 -44c38.667 0 69.334 6.33301 92.001 19s43.334 30.334 62.001 53.001l67 -54c-32 -34.667 -65.667 -60.167 -101 -76.5s-76.333 -24.5 -123 -24.5c-46 0 -87.333 9.33301 -124 28
s-63.334 42.334 -80.001 71.001c-26.667 -36.667 -58.167 -62.334 -94.5 -77.001s-77.833 -22 -124.5 -22c-63.333 0 -117 16.5 -161 49.5s-66 78.5 -66 136.5c0 47.333 19.5 89 58.5 125s94.833 54 167.5 54c6.66699 0 13.167 -0.166992 19.5 -0.5
s12.5 -1.16602 18.5 -2.49902c22 -2.66699 43.333 -8.5 64 -17.5s40.334 -21.833 59.001 -38.5v0zM425.001 170.999v2.5v3.5c-1.33301 24 -12.833 46.333 -34.5 67s-59.167 31 -112.5 31c-52.667 0 -90 -10.333 -112 -31s-33.667 -43 -35 -67v-3.5v-2.5v-2.5v-3.5
c1.33301 -24 13 -46.333 35 -67s59.333 -31 112 -31c53.333 0 90.833 10.333 112.5 31s33.167 43 34.5 67v3.5v2.5v0zM515.001 299.999l317.001 0.000976562c-4 46 -21.333 82.333 -52 109s-66 40 -106 40h-2h-2c-35.333 -0.666992 -68.333 -12.834 -99 -36.501
s-49.334 -61.167 -56.001 -112.5v0z" />
    <glyph glyph-name="ccedilla" unicode="&#xe7;" horiz-adv-x="519" 
d="M203 -196l-26.001 48.001c33.333 8.66699 60.5 22.5 81.5 41.5s37.833 46.167 50.5 81.5l87 -32c-18.667 -44.667 -43.667 -77.334 -75 -98.001s-70.666 -34 -117.999 -40v-1zM494.999 468.001l-60.999 -71c-18 17.333 -37 30.333 -57 39s-41.333 13 -64 13
c-44.667 0 -84.5 -16.167 -119.5 -48.5s-52.5 -80.5 -52.5 -144.5c0 -52.667 17.167 -96.5 51.5 -131.5s77.5 -52.5 129.5 -52.5c21.333 0 42.166 5.16699 62.499 15.5s38.166 22.833 53.499 37.5l53 -66c-23.333 -24 -50.833 -41.667 -82.5 -53s-64.167 -17 -97.5 -17
c-80 0 -144.333 27 -193 81s-73 117 -73 189c0 74.667 25.833 139 77.5 193s114.834 81 189.501 81c38.667 0 73.5 -6.5 104.5 -19.5s56.167 -27.167 75.5 -42.5l1.5 -1.5l1.5 -1.5v0z" />
    <glyph glyph-name="egrave" unicode="&#xe8;" horiz-adv-x="630" 
d="M495 156l68.999 -55.001c-34.667 -38.667 -71.167 -67 -109.5 -85s-80.166 -27 -125.499 -27c-92.667 0 -163.167 28 -211.5 84s-72.5 118.667 -72.5 188c0 74 24.5 137.833 73.5 191.5s114.167 80.5 195.5 80.5c80.667 0 146.334 -28.167 197.001 -84.5
s76 -130.5 76 -222.5h-446c7.33301 -44.667 27.666 -81.5 60.999 -110.5s75.333 -43.5 126 -43.5c32 0 62.167 7.33301 90.5 22s53.833 35.334 76.5 62.001v0zM140.999 299.999h344.001c-4.66699 43.333 -22.834 79 -54.501 107s-70.834 42 -117.501 42
c-50.667 0 -89.667 -13.667 -117 -41s-44.666 -57.333 -51.999 -90c-0.666992 -3.33301 -1.16699 -6.5 -1.5 -9.5s-0.833008 -5.83301 -1.5 -8.5v0zM307 601.999l-131 124v8h121l81 -132h-71v0z" />
    <glyph glyph-name="eacute" unicode="&#xe9;" horiz-adv-x="630" 
d="M495 156l68.999 -55.001c-34.667 -38.667 -71.167 -67 -109.5 -85s-80.166 -27 -125.499 -27c-92.667 0 -163.167 28 -211.5 84s-72.5 118.667 -72.5 188c0 74 24.5 137.833 73.5 191.5s114.167 80.5 195.5 80.5c80.667 0 146.334 -28.167 197.001 -84.5
s76 -130.5 76 -222.5h-446c7.33301 -44.667 27.666 -81.5 60.999 -110.5s75.333 -43.5 126 -43.5c32 0 62.167 7.33301 90.5 22s53.833 35.334 76.5 62.001v0zM140.999 299.999h344.001c-4.66699 43.333 -22.834 79 -54.501 107s-70.834 42 -117.501 42
c-50.667 0 -89.667 -13.667 -117 -41s-44.666 -57.333 -51.999 -90c-0.666992 -3.33301 -1.16699 -6.5 -1.5 -9.5s-0.833008 -5.83301 -1.5 -8.5v0zM264 601.999l81 132h121v-8l-131 -124h-71v0z" />
    <glyph glyph-name="ecircumflex" unicode="&#xea;" horiz-adv-x="630" 
d="M495 156l68.999 -55.001c-34.667 -38.667 -71.167 -67 -109.5 -85s-80.166 -27 -125.499 -27c-92.667 0 -163.167 28 -211.5 84s-72.5 118.667 -72.5 188c0 74 24.5 137.833 73.5 191.5s114.167 80.5 195.5 80.5c80.667 0 146.334 -28.167 197.001 -84.5
s76 -130.5 76 -222.5h-446c7.33301 -44.667 27.666 -81.5 60.999 -110.5s75.333 -43.5 126 -43.5c32 0 62.167 7.33301 90.5 22s53.833 35.334 76.5 62.001v0zM140.999 299.999h344.001c-4.66699 43.333 -22.834 79 -54.501 107s-70.834 42 -117.501 42
c-50.667 0 -89.667 -13.667 -117 -41s-44.666 -57.333 -51.999 -90c-0.666992 -3.33301 -1.16699 -6.5 -1.5 -9.5s-0.833008 -5.83301 -1.5 -8.5v0zM397 601.999l-76 76l-76 -76h-74l96 132h108l96 -132h-74v0z" />
    <glyph glyph-name="edieresis" unicode="&#xeb;" horiz-adv-x="630" 
d="M495 156l68.999 -55.001c-34.667 -38.667 -71.167 -67 -109.5 -85s-80.166 -27 -125.499 -27c-92.667 0 -163.167 28 -211.5 84s-72.5 118.667 -72.5 188c0 74 24.5 137.833 73.5 191.5s114.167 80.5 195.5 80.5c80.667 0 146.334 -28.167 197.001 -84.5
s76 -130.5 76 -222.5h-446c7.33301 -44.667 27.666 -81.5 60.999 -110.5s75.333 -43.5 126 -43.5c32 0 62.167 7.33301 90.5 22s53.833 35.334 76.5 62.001v0zM140.999 299.999h344.001c-4.66699 43.333 -22.834 79 -54.501 107s-70.834 42 -117.501 42
c-50.667 0 -89.667 -13.667 -117 -41s-44.666 -57.333 -51.999 -90c-0.666992 -3.33301 -1.16699 -6.5 -1.5 -9.5s-0.833008 -5.83301 -1.5 -8.5v0zM165 664.999c0 17.333 6.16699 32.166 18.5 44.499s27.166 18.5 44.499 18.5s32.166 -6.16699 44.499 -18.5
s18.5 -27.166 18.5 -44.499s-6.16699 -32.166 -18.5 -44.499s-27.166 -18.5 -44.499 -18.5s-32.166 6.16699 -44.499 18.5s-18.5 27.166 -18.5 44.499v0zM351 664.999c0 17.333 6.16699 32.166 18.5 44.499s27.166 18.5 44.499 18.5s32.166 -6.16699 44.499 -18.5
s18.5 -27.166 18.5 -44.499s-6.16699 -32.166 -18.5 -44.499s-27.166 -18.5 -44.499 -18.5s-32.166 6.16699 -44.499 18.5s-18.5 27.166 -18.5 44.499v0z" />
    <glyph glyph-name="igrave" unicode="&#xec;" horiz-adv-x="240" 
d="M75 0v521h90v-521h-90v0zM106 602l-131 124v8h121l81 -132h-71v0z" />
    <glyph glyph-name="iacute" unicode="&#xed;" horiz-adv-x="240" 
d="M75 0v521h90v-521h-90v0zM63 602l81 132h121v-8l-131 -124h-71v0z" />
    <glyph glyph-name="icircumflex" unicode="&#xee;" horiz-adv-x="240" 
d="M75 0v521h90v-521h-90v0zM196 602l-76 76l-76 -76h-74l96 132h108l96 -132h-74v0z" />
    <glyph glyph-name="idieresis" unicode="&#xef;" horiz-adv-x="240" 
d="M75 0v521h90v-521h-90v0zM-36 665c0.666992 17.333 7 32.166 19 44.499s26.667 18.5 44 18.5s32.166 -6.16699 44.499 -18.5s18.5 -27.166 18.5 -44.499s-6.16699 -32.166 -18.5 -44.499s-27.166 -18.5 -44.499 -18.5s-32 6.16699 -44 18.5s-18 27.166 -18 44.499h-1z
M150 665c0 17.333 6.16699 32.166 18.5 44.499s27.166 18.5 44.499 18.5s32.166 -6.16699 44.499 -18.5s18.5 -27.166 18.5 -44.499s-6.16699 -32.166 -18.5 -44.499s-27.166 -18.5 -44.499 -18.5s-32.166 6.16699 -44.499 18.5s-18.5 27.166 -18.5 44.499v0z" />
    <glyph glyph-name="eth" unicode="&#xf0;" horiz-adv-x="684" 
d="M234 597l-53.999 41.001l120 52c-19.333 9.33301 -39.333 17.5 -60 24.5s-41.667 12.167 -63 15.5l78 56c26 -6.66699 50.667 -14.667 74 -24s45 -20 65 -32l130 56l53 -42l-125 -53c57.333 -46.667 100.333 -103.5 129 -170.5s43 -140.5 43 -220.5
c0 -104 -26.667 -181.833 -80 -233.5s-120.666 -77.5 -201.999 -77.5c-84.667 0 -152.834 26.5 -204.501 79.5s-77.5 116.833 -77.5 191.5c0 73.333 26.5 137.166 79.5 191.499s120.5 81.5 202.5 81.5c35.333 0 66.166 -5.83301 92.499 -17.5s48.833 -28.167 67.5 -49.5l2 2
c-10 38 -27.5 72.5 -52.5 103.5s-54.167 58.167 -87.5 81.5l-130 -56v0zM342.001 449.001c-50 0 -93.5 -18 -130.5 -54s-55.5 -81 -55.5 -135c0 -50 18.5 -93.833 55.5 -131.5s80.5 -56.5 130.5 -56.5s93.5 18.833 130.5 56.5s55.5 81.5 55.5 131.5c0 54 -18.5 99 -55.5 135
s-80.5 54 -130.5 54v0z" />
    <glyph glyph-name="ntilde" unicode="&#xf1;" horiz-adv-x="574" 
d="M415 0l-0.00195312 302.999c0 39.333 -9 73.5 -27 102.5s-49.333 43.5 -94 43.5c-42 0 -75 -13.667 -99 -41s-36 -65.666 -36 -114.999v-293h-90v521h90v-61h2c13.333 23.333 33.333 41.333 60 54s54.334 19 83.001 19c50.667 0 96.834 -15 138.501 -45
s62.5 -80.333 62.5 -151v-337h-90v0zM174.998 610.999h-40.999c1.33301 30.667 8.16602 56.834 20.499 78.501s32.833 32.5 61.5 32.5c3.33301 0 6.5 -0.166992 9.5 -0.5s6.16699 -0.833008 9.5 -1.5c10.667 -1.33301 21.334 -4 32.001 -8s20.667 -8 30 -12l35 -16
c10.667 -4.66699 19.334 -7 26.001 -7c2 0 4.33301 0.333008 7 1s5.33398 1.66699 8.00098 3c6 2.66699 11.5 7.16699 16.5 13.5s8.16699 14.833 9.5 25.5h41c-0.666992 -30.667 -7.33398 -56.834 -20.001 -78.501s-33.334 -32.5 -62.001 -32.5
c-3.33301 0 -6.5 0.166992 -9.5 0.5s-6.16699 0.833008 -9.5 1.5c-10.667 1.33301 -21.334 4 -32.001 8s-20.667 8.33301 -30 13l-34.5 15c-10.333 4.66699 -19.166 7 -26.499 7c-2 0 -4.33301 -0.333008 -7 -1s-5.33398 -1.66699 -8.00098 -3
c-6 -2.66699 -11.5 -7.16699 -16.5 -13.5s-8.16699 -14.833 -9.5 -25.5v0z" />
    <glyph glyph-name="ograve" unicode="&#xf2;" horiz-adv-x="684" 
d="M60 260c0 73.333 26.5 137.166 79.5 191.499s120.5 81.5 202.5 81.5s149.5 -27.167 202.5 -81.5s79.5 -118.166 79.5 -191.499c0 -74.667 -25.667 -138.5 -77 -191.5s-119.666 -79.5 -204.999 -79.5c-84.667 0 -152.834 26.5 -204.501 79.5s-77.5 116.833 -77.5 191.5v0z
M342 449c-50 0 -93.5 -18 -130.5 -54s-55.5 -81 -55.5 -135c0 -50 18.5 -93.833 55.5 -131.5s80.5 -56.5 130.5 -56.5s93.5 18.833 130.5 56.5s55.5 81.5 55.5 131.5c0 54 -18.5 99 -55.5 135s-80.5 54 -130.5 54v0zM328 602l-131 124v8h121l81 -132h-71v0z" />
    <glyph glyph-name="oacute" unicode="&#xf3;" horiz-adv-x="684" 
d="M60 260c0 73.333 26.5 137.166 79.5 191.499s120.5 81.5 202.5 81.5s149.5 -27.167 202.5 -81.5s79.5 -118.166 79.5 -191.499c0 -74.667 -25.667 -138.5 -77 -191.5s-119.666 -79.5 -204.999 -79.5c-84.667 0 -152.834 26.5 -204.501 79.5s-77.5 116.833 -77.5 191.5v0z
M342 449c-50 0 -93.5 -18 -130.5 -54s-55.5 -81 -55.5 -135c0 -50 18.5 -93.833 55.5 -131.5s80.5 -56.5 130.5 -56.5s93.5 18.833 130.5 56.5s55.5 81.5 55.5 131.5c0 54 -18.5 99 -55.5 135s-80.5 54 -130.5 54v0zM285 602l81 132h121v-8l-131 -124h-71v0z" />
    <glyph glyph-name="ocircumflex" unicode="&#xf4;" horiz-adv-x="684" 
d="M60 260c0 73.333 26.5 137.166 79.5 191.499s120.5 81.5 202.5 81.5s149.5 -27.167 202.5 -81.5s79.5 -118.166 79.5 -191.499c0 -74.667 -25.667 -138.5 -77 -191.5s-119.666 -79.5 -204.999 -79.5c-84.667 0 -152.834 26.5 -204.501 79.5s-77.5 116.833 -77.5 191.5v0z
M342 449c-50 0 -93.5 -18 -130.5 -54s-55.5 -81 -55.5 -135c0 -50 18.5 -93.833 55.5 -131.5s80.5 -56.5 130.5 -56.5s93.5 18.833 130.5 56.5s55.5 81.5 55.5 131.5c0 54 -18.5 99 -55.5 135s-80.5 54 -130.5 54v0zM418 602l-76 76l-76 -76h-74l96 132h108l96 -132h-74v0z
" />
    <glyph glyph-name="otilde" unicode="&#xf5;" horiz-adv-x="684" 
d="M60 260c0 73.333 26.5 137.166 79.5 191.499s120.5 81.5 202.5 81.5s149.5 -27.167 202.5 -81.5s79.5 -118.166 79.5 -191.499c0 -74.667 -25.667 -138.5 -77 -191.5s-119.666 -79.5 -204.999 -79.5c-84.667 0 -152.834 26.5 -204.501 79.5s-77.5 116.833 -77.5 191.5v0z
M342 449c-50 0 -93.5 -18 -130.5 -54s-55.5 -81 -55.5 -135c0 -50 18.5 -93.833 55.5 -131.5s80.5 -56.5 130.5 -56.5s93.5 18.833 130.5 56.5s55.5 81.5 55.5 131.5c0 54 -18.5 99 -55.5 135s-80.5 54 -130.5 54v0zM230 611h-40.999
c1.33301 30.667 8.16602 56.834 20.499 78.501s32.833 32.5 61.5 32.5c3.33301 0 6.5 -0.166992 9.5 -0.5s6.16699 -0.833008 9.5 -1.5c10.667 -1.33301 21.334 -4 32.001 -8s20.667 -8 30 -12l35 -16c10.667 -4.66699 19.334 -7 26.001 -7c2 0 4.33301 0.333008 7 1
s5.33398 1.66699 8.00098 3c6 2.66699 11.5 7.16699 16.5 13.5s8.16699 14.833 9.5 25.5h41c-0.666992 -30.667 -7.33398 -56.834 -20.001 -78.501s-33.334 -32.5 -62.001 -32.5c-3.33301 0 -6.5 0.166992 -9.5 0.5s-6.16699 0.833008 -9.5 1.5
c-10.667 1.33301 -21.334 4 -32.001 8s-20.667 8.33301 -30 13l-34.5 15c-10.333 4.66699 -19.166 7 -26.499 7c-2 0 -4.33301 -0.333008 -7 -1s-5.33398 -1.66699 -8.00098 -3c-6 -2.66699 -11.5 -7.16699 -16.5 -13.5s-8.16699 -14.833 -9.5 -25.5v0z" />
    <glyph glyph-name="odieresis" unicode="&#xf6;" horiz-adv-x="684" 
d="M60 260c0 73.333 26.5 137.166 79.5 191.499s120.5 81.5 202.5 81.5s149.5 -27.167 202.5 -81.5s79.5 -118.166 79.5 -191.499c0 -74.667 -25.667 -138.5 -77 -191.5s-119.666 -79.5 -204.999 -79.5c-84.667 0 -152.834 26.5 -204.501 79.5s-77.5 116.833 -77.5 191.5v0z
M342 449c-50 0 -93.5 -18 -130.5 -54s-55.5 -81 -55.5 -135c0 -50 18.5 -93.833 55.5 -131.5s80.5 -56.5 130.5 -56.5s93.5 18.833 130.5 56.5s55.5 81.5 55.5 131.5c0 54 -18.5 99 -55.5 135s-80.5 54 -130.5 54v0zM186 665c0 17.333 6.16699 32.166 18.5 44.499
s27.166 18.5 44.499 18.5s32.166 -6.16699 44.499 -18.5s18.5 -27.166 18.5 -44.499s-6.16699 -32.166 -18.5 -44.499s-27.166 -18.5 -44.499 -18.5s-32.166 6.16699 -44.499 18.5s-18.5 27.166 -18.5 44.499v0zM372 665c0 17.333 6.16699 32.166 18.5 44.499
s27.166 18.5 44.499 18.5s32.166 -6.16699 44.499 -18.5s18.5 -27.166 18.5 -44.499s-6.16699 -32.166 -18.5 -44.499s-27.166 -18.5 -44.499 -18.5s-32.166 6.16699 -44.499 18.5s-18.5 27.166 -18.5 44.499v0z" />
    <glyph glyph-name="divide" unicode="&#xf7;" horiz-adv-x="600" 
d="M231 47c0 19.333 6.83301 35.666 20.5 48.999s29.834 20 48.501 20c19.333 0 35.666 -6.66699 48.999 -20s20 -29.666 20 -48.999c0 -18.667 -6.66699 -34.667 -20 -48s-29.666 -20 -48.999 -20c-18.667 0 -34.834 6.66699 -48.501 20s-20.5 29.333 -20.5 48v0zM47 216
v74h506v-74h-506v0zM231 459c0 19.333 6.83301 35.666 20.5 48.999s29.834 20 48.501 20c19.333 0 35.666 -6.66699 48.999 -20s20 -29.666 20 -48.999c0 -18.667 -6.66699 -34.834 -20 -48.501s-29.666 -20.5 -48.999 -20.5c-18.667 0 -34.834 6.83301 -48.501 20.5
s-20.5 29.834 -20.5 48.501v0z" />
    <glyph glyph-name="oslash" unicode="&#xf8;" horiz-adv-x="684" 
d="M52 20l69.999 66.002c-20 23.333 -35.333 49.833 -46 79.5s-16 61.167 -16 94.5c0 73.333 26.5 137.166 79.5 191.499s120.5 81.5 202.5 81.5c35.333 0 68.5 -5.66699 99.5 -17s58.833 -27 83.5 -47l72 69l35 -37l-71 -67c20 -24 35.5 -50.833 46.5 -80.5
s16.5 -60.834 16.5 -93.501c0 -74.667 -25.667 -138.5 -77 -191.5s-119.666 -79.5 -204.999 -79.5c-36.667 0 -70.5 5.33301 -101.5 16s-58.5 25.667 -82.5 45l-71 -67l-35 37v0zM493.999 370.002l-267 -255.001c15.333 -12.667 32.833 -23 52.5 -31s40.5 -12 62.5 -12
c50 0 93.5 18.833 130.5 56.5s55.5 81.5 55.5 131.5c0 20.667 -3 40.334 -9 59.001s-14.333 35.667 -25 51v0zM191.999 153.001l267.002 253.999c-16.667 13.333 -34.834 23.666 -54.501 30.999s-40.5 11 -62.5 11c-50 0 -93.5 -18 -130.5 -54s-55.5 -81 -55.5 -135
c0 -19.333 3.16699 -38.166 9.5 -56.499s15.166 -35.166 26.499 -50.499v0z" />
    <glyph glyph-name="ugrave" unicode="&#xf9;" horiz-adv-x="574" 
d="M415 0l-0.000976562 60.999h-2c-13.333 -23.333 -33.166 -41.166 -59.499 -53.499s-54.166 -18.5 -83.499 -18.5c-50.667 0 -96.834 14.833 -138.501 44.5s-62.5 79.834 -62.5 150.501v337h90v-303c0 -38.667 9 -72.667 27 -102s49.333 -44 94 -44c42 0 75 13.667 99 41
s36 65.666 36 114.999v293h90v-521h-90v0zM272.999 601.999l-131 124v8h121l81 -132h-71v0z" />
    <glyph glyph-name="uacute" unicode="&#xfa;" horiz-adv-x="574" 
d="M415 0l-0.000976562 60.999h-2c-13.333 -23.333 -33.166 -41.166 -59.499 -53.499s-54.166 -18.5 -83.499 -18.5c-50.667 0 -96.834 14.833 -138.501 44.5s-62.5 79.834 -62.5 150.501v337h90v-303c0 -38.667 9 -72.667 27 -102s49.333 -44 94 -44c42 0 75 13.667 99 41
s36 65.666 36 114.999v293h90v-521h-90v0zM229.999 601.999l81 132h121v-8l-131 -124h-71v0z" />
    <glyph glyph-name="ucircumflex" unicode="&#xfb;" horiz-adv-x="574" 
d="M415 0l-0.000976562 60.999h-2c-13.333 -23.333 -33.166 -41.166 -59.499 -53.499s-54.166 -18.5 -83.499 -18.5c-50.667 0 -96.834 14.833 -138.501 44.5s-62.5 79.834 -62.5 150.501v337h90v-303c0 -38.667 9 -72.667 27 -102s49.333 -44 94 -44c42 0 75 13.667 99 41
s36 65.666 36 114.999v293h90v-521h-90v0zM362.999 601.999l-76 76l-76 -76h-74l96 132h108l96 -132h-74v0z" />
    <glyph glyph-name="udieresis" unicode="&#xfc;" horiz-adv-x="574" 
d="M415 0l-0.000976562 60.999h-2c-13.333 -23.333 -33.166 -41.166 -59.499 -53.499s-54.166 -18.5 -83.499 -18.5c-50.667 0 -96.834 14.833 -138.501 44.5s-62.5 79.834 -62.5 150.501v337h90v-303c0 -38.667 9 -72.667 27 -102s49.333 -44 94 -44c42 0 75 13.667 99 41
s36 65.666 36 114.999v293h90v-521h-90v0zM130.999 664.999c0 17.333 6.16699 32.166 18.5 44.499s27.166 18.5 44.499 18.5s32.166 -6.16699 44.499 -18.5s18.5 -27.166 18.5 -44.499s-6.16699 -32.166 -18.5 -44.499s-27.166 -18.5 -44.499 -18.5
s-32.166 6.16699 -44.499 18.5s-18.5 27.166 -18.5 44.499v0zM316.999 664.999c0 17.333 6.16699 32.166 18.5 44.499s27.166 18.5 44.499 18.5s32.166 -6.16699 44.499 -18.5s18.5 -27.166 18.5 -44.499s-6.16699 -32.166 -18.5 -44.499s-27.166 -18.5 -44.499 -18.5
s-32.166 6.16699 -44.499 18.5s-18.5 27.166 -18.5 44.499v0z" />
    <glyph glyph-name="yacute" unicode="&#xfd;" 
 />
    <glyph glyph-name="thorn" unicode="&#xfe;" horiz-adv-x="684" 
d="M75 -220v979.999h90v-321h2c20.667 30 48.334 53 83.001 69s71 24.333 109 25h2.5h3.5c73.333 0 136.833 -25.667 190.5 -77s80.5 -114.666 80.5 -189.999c0 -82 -27.667 -148.667 -83 -200s-119.333 -77 -192 -77c-44.667 0 -83.334 8.5 -116.001 25.5
s-58.667 38.833 -78 65.5h-2v-300h-90v0zM540 264.999c0 4 -0.166992 8.00195 -0.5 12.002s-0.833008 8.33301 -1.5 13c-5.33301 39.333 -24.333 75.666 -57 108.999s-76.667 50 -132 50c-48.667 0 -91.5 -18.333 -128.5 -55s-55.5 -81.334 -55.5 -134.001
c0 -52 18.333 -96.333 55 -133s80.667 -55 132 -55c47.333 0 90.5 17.167 129.5 51.5s58.5 81.5 58.5 141.5v0z" />
    <glyph glyph-name="ydieresis" unicode="&#xff;" horiz-adv-x="574" 
d="M128 -220l97 228l-217 513h102l167 -402l169 402h96l-320 -741h-94v0zM131 665c0 17.333 6.16699 32.166 18.5 44.499s27.166 18.5 44.499 18.5s32.166 -6.16699 44.499 -18.5s18.5 -27.166 18.5 -44.499s-6.16699 -32.166 -18.5 -44.499s-27.166 -18.5 -44.499 -18.5
s-32.166 6.16699 -44.499 18.5s-18.5 27.166 -18.5 44.499v0zM317 665c0 17.333 6.16699 32.166 18.5 44.499s27.166 18.5 44.499 18.5s32.166 -6.16699 44.499 -18.5s18.5 -27.166 18.5 -44.499s-6.16699 -32.166 -18.5 -44.499s-27.166 -18.5 -44.499 -18.5
s-32.166 6.16699 -44.499 18.5s-18.5 27.166 -18.5 44.499v0z" />
    <glyph glyph-name="Abreve" unicode="&#x102;" 
 />
    <glyph glyph-name="abreve" unicode="&#x103;" 
 />
    <glyph glyph-name="Aogonek" unicode="&#x104;" 
 />
    <glyph glyph-name="aogonek" unicode="&#x105;" 
 />
    <glyph glyph-name="Cacute" unicode="&#x106;" 
 />
    <glyph glyph-name="cacute" unicode="&#x107;" 
 />
    <glyph glyph-name="Ccaron" unicode="&#x10c;" 
 />
    <glyph glyph-name="ccaron" unicode="&#x10d;" 
 />
    <glyph glyph-name="Dcaron" unicode="&#x10e;" 
 />
    <glyph glyph-name="dcaron" unicode="&#x10f;" 
 />
    <glyph glyph-name="Dslash" unicode="&#x110;" 
 />
    <glyph glyph-name="dslash" unicode="&#x111;" 
 />
    <glyph glyph-name="Eogonek" unicode="&#x118;" 
 />
    <glyph glyph-name="eogonek" unicode="&#x119;" 
 />
    <glyph glyph-name="Ecaron" unicode="&#x11a;" 
 />
    <glyph glyph-name="ecaron" unicode="&#x11b;" 
 />
    <glyph glyph-name="Gbreve" unicode="&#x11e;" 
 />
    <glyph glyph-name="gbreve" unicode="&#x11f;" 
 />
    <glyph glyph-name="Idot" unicode="&#x130;" 
 />
    <glyph glyph-name="dotlessi" unicode="&#x131;" horiz-adv-x="240" 
d="M75 0v521h90v-521h-90v0z" />
    <glyph glyph-name="Lacute" unicode="&#x139;" 
 />
    <glyph glyph-name="lacute" unicode="&#x13a;" 
 />
    <glyph glyph-name="Lcaron" unicode="&#x13d;" 
 />
    <glyph glyph-name="lcaron" unicode="&#x13e;" 
 />
    <glyph glyph-name="Ldot" unicode="&#x13f;" 
 />
    <glyph glyph-name="ldot" unicode="&#x140;" 
 />
    <glyph glyph-name="Lslash" unicode="&#x141;" horiz-adv-x="463" 
d="M172 466l124 124v-96l-124 -124v-280h267v-90h-363v274l-69 -69v96l69 69v390h96v-294v0z" />
    <glyph glyph-name="lslash" unicode="&#x142;" horiz-adv-x="240" 
d="M153 483l84.999 84.999v-74l-85 -85v-246c0 -29.333 6 -49.833 18 -61.5s25.333 -17.5 40 -17.5h27v-84h-37c-41.333 0 -74.666 12.333 -99.999 37s-38 64.334 -38 119.001v163l-59 -59v74l59 59v367h90v-277v0z" />
    <glyph glyph-name="Nacute" unicode="&#x143;" 
 />
    <glyph glyph-name="nacute" unicode="&#x144;" 
 />
    <glyph glyph-name="Ncaron" unicode="&#x147;" 
 />
    <glyph glyph-name="ncaron" unicode="&#x148;" 
 />
    <glyph glyph-name="Odblacute" unicode="&#x150;" 
 />
    <glyph glyph-name="odblacute" unicode="&#x151;" 
 />
    <glyph glyph-name="OE" unicode="&#x152;" horiz-adv-x="1019" 
d="M603 659v101.001h366v-90h-274v-251h274v-90h-274v-239h274v-90h-366v100h-2c-25.333 -38.667 -57.166 -66.834 -95.499 -84.501s-83.166 -26.5 -134.499 -26.5c-110.667 0 -193.667 40.5 -249 121.5s-83 170.833 -83 269.5c0 99.333 27.667 189.5 83 270.5
s138.333 121.5 249 121.5c51.333 0 96.166 -8.83301 134.499 -26.5s70.166 -46.167 95.499 -85.5l2 -1v0zM605 380.001v10.5v11.5c-3.33301 71.333 -22.666 136.833 -57.999 196.5s-94 89.5 -176 89.5c-82.667 0 -141.834 -29.833 -177.501 -89.5
s-55.167 -125.167 -58.5 -196.5v-11.5v-10.5v-10.5v-11.5c3.33301 -71.333 22.833 -136.833 58.5 -196.5s94.834 -89.5 177.501 -89.5c82 0 140.667 29.833 176 89.5s54.666 125.167 57.999 196.5v11.5v10.5v0z" />
    <glyph glyph-name="oe" unicode="&#x153;" horiz-adv-x="1019" 
d="M978 226h-418.999c4 -44 22.833 -80.667 56.5 -110s74.5 -44 122.5 -44c38.667 0 69.334 6.33301 92.001 19s43.334 30.334 62.001 53.001l67 -54c-32 -34.667 -65.667 -60.167 -101 -76.5s-76.333 -24.5 -123 -24.5c-42.667 0 -82.834 7.66699 -120.501 23
s-70.834 45 -99.501 89c-22 -38 -51.333 -66.167 -88 -84.5s-77 -27.5 -121 -27.5c-82.667 0 -147.5 26.5 -194.5 79.5s-70.5 115.5 -70.5 187.5c0 5.33301 0.166992 10.833 0.5 16.5s0.833008 11.167 1.5 16.5c6.66699 60.667 31.667 116.5 75 167.5s106 76.5 188 76.5
c42.667 0 82 -8.66699 118 -26s67.333 -46 94 -86c26 37.333 54.5 65.333 85.5 84s70.833 28 119.5 28c79.333 0 141.666 -27.833 186.999 -83.5s68 -119.834 68 -192.501v-31v0zM475.001 259v5.5v5.5c-2 44.667 -17.167 85.667 -45.5 123s-69.5 56 -123.5 56
s-95.167 -18.667 -123.5 -56s-43.5 -78.333 -45.5 -123v-5.5v-5.5c0 -50.667 15 -94.5 45 -131.5s71.333 -55.5 124 -55.5s94 18.5 124 55.5s45 80.833 45 131.5v0zM559.001 300h323c-4 46 -21.333 82.333 -52 109s-66 40 -106 40h-2h-2
c-35.333 -0.666992 -68.5 -12.167 -99.5 -34.5s-51.5 -60.5 -61.5 -114.5v0z" />
    <glyph glyph-name="Racute" unicode="&#x154;" 
 />
    <glyph glyph-name="racute" unicode="&#x155;" 
 />
    <glyph glyph-name="Rcaron" unicode="&#x158;" 
 />
    <glyph glyph-name="rcaron" unicode="&#x159;" 
 />
    <glyph glyph-name="Sacute" unicode="&#x15a;" 
 />
    <glyph glyph-name="sacute" unicode="&#x15b;" 
 />
    <glyph glyph-name="Scedilla" unicode="&#x15e;" 
 />
    <glyph glyph-name="scedilla" unicode="&#x15f;" 
 />
    <glyph glyph-name="Scaron" unicode="&#x160;" horiz-adv-x="574" 
d="M522 543l-90.001 0.000976562c-6.66699 45.333 -22.5 80.833 -47.5 106.5s-57.833 38.5 -98.5 38.5c-42.667 0 -74 -9.16699 -94 -27.5s-33 -38.5 -39 -60.5c-1.33301 -6 -2.33301 -12 -3 -18s-1 -11.667 -1 -17c0 -28.667 9.16699 -52.5 27.5 -71.5
s46.166 -35.5 83.499 -49.5l96 -36c60.667 -22.667 105.334 -51.5 134.001 -86.5s43 -75.5 43 -121.5c0 -61.333 -22.333 -111.833 -67 -151.5s-103.667 -59.5 -177 -59.5c-68.667 0 -125.667 18.333 -171 55s-71 93 -77 169h96c4 -41.333 17.833 -75.166 41.5 -101.499
s62.167 -39.5 115.5 -39.5c41.333 0 75.5 11.667 102.5 35s40.5 51.666 40.5 84.999c0 29.333 -11 54 -33 74s-50.333 36.667 -85 50l-97 38c-56.667 22 -99 50 -127 84s-42 75.333 -42 124c0 65.333 23.333 116.666 70 153.999s101.334 56 164.001 56
c63.333 0 117 -18.833 161 -56.5s68.667 -95.167 74 -172.5v0zM286.999 853.001l76 76h74l-96 -132h-108l-96 132h74l76 -76v0z" />
    <glyph glyph-name="scaron" unicode="&#x161;" horiz-adv-x="463" 
d="M39 152l83.998 0.00488281c3.33301 -28 15.333 -49.167 36 -63.5s44.667 -21.5 72 -21.5c31.333 0 54.5 5.5 69.5 16.5s24.833 22.833 29.5 35.5c1.33301 4 2.33301 8 3 12s1 7.66699 1 11c0 17.333 -6.5 31.666 -19.5 42.999s-37.167 21.666 -72.5 30.999l-91 25
c-38.667 10.667 -66 28 -82 52s-24 51.333 -24 82c0 43.333 15.833 80.5 47.5 111.5s77.834 46.5 138.501 46.5c62 0 106.5 -15.167 133.5 -45.5s41.833 -63.833 44.5 -100.5c0.666992 -2.66699 1 -5.33398 1 -8.00098v-8h-84c-3.33301 29.333 -12.833 51.333 -28.5 66
s-38.5 22 -68.5 22c-28.667 0 -51.5 -7.33301 -68.5 -22s-25.5 -32.334 -25.5 -53.001c0 -14.667 4.5 -27.334 13.5 -38.001s23.833 -19 44.5 -25l122 -35c41.333 -12 69.833 -29.333 85.5 -52s23.5 -50.667 23.5 -84c0 -52.667 -19.5 -92.667 -58.5 -120
s-82.5 -41 -130.5 -41c-60.667 0 -108.167 14.833 -142.5 44.5s-52.166 69.167 -53.499 118.5v0zM231.998 658.005l76 76h74l-96 -132h-108l-96 132h74l76 -76v0z" />
    <glyph glyph-name="Tcedilla" unicode="&#x162;" 
 />
    <glyph glyph-name="tcedilla" unicode="&#x163;" 
 />
    <glyph glyph-name="Tcaron" unicode="&#x164;" 
 />
    <glyph glyph-name="tcaron" unicode="&#x165;" 
 />
    <glyph glyph-name="Uring" unicode="&#x16e;" 
 />
    <glyph glyph-name="uring" unicode="&#x16f;" 
 />
    <glyph glyph-name="udblacute" unicode="&#x170;" 
 />
    <glyph glyph-name="Udblacute" unicode="&#x171;" 
 />
    <glyph glyph-name="Ydieresis" unicode="&#x178;" horiz-adv-x="630" 
d="M315 404l193 356h112l-257 -457v-303h-96v303l-257 457h112l193 -356v0zM159 870c0 17.333 6.16699 32.166 18.5 44.499s27.166 18.5 44.499 18.5s32.166 -6.16699 44.499 -18.5s18.5 -27.166 18.5 -44.499s-6.16699 -32.166 -18.5 -44.499s-27.166 -18.5 -44.499 -18.5
s-32.166 6.16699 -44.499 18.5s-18.5 27.166 -18.5 44.499v0zM345 870c0 17.333 6.16699 32.166 18.5 44.499s27.166 18.5 44.499 18.5s32.166 -6.16699 44.499 -18.5s18.5 -27.166 18.5 -44.499s-6.16699 -32.166 -18.5 -44.499s-27.166 -18.5 -44.499 -18.5
s-32.166 6.16699 -44.499 18.5s-18.5 27.166 -18.5 44.499v0z" />
    <glyph glyph-name="Zacute" unicode="&#x179;" 
 />
    <glyph glyph-name="zacute" unicode="&#x17a;" 
 />
    <glyph glyph-name="Zdot" unicode="&#x17b;" 
 />
    <glyph glyph-name="zdot" unicode="&#x17c;" 
 />
    <glyph glyph-name="Zcaron" unicode="&#x17d;" horiz-adv-x="630" 
d="M25 0l416 670h-379v90h543l-416 -670h396v-90h-560v0zM315 853l76 76h74l-96 -132h-108l-96 132h74l76 -76v0z" />
    <glyph glyph-name="zcaron" unicode="&#x17e;" horiz-adv-x="463" 
d="M21 0l272 442h-244v79h393l-270 -442h257v-79h-408v0zM232 658l76 76h74l-96 -132h-108l-96 132h74l76 -76v0z" />
    <glyph glyph-name="florin" unicode="&#x192;" horiz-adv-x="520" 
d="M110 367l6 50h97l23 186c6.66699 52 22.167 88.167 46.5 108.5s61.166 30.5 110.499 30.5c6 0 11.333 -0.166992 16 -0.5s9 -0.833008 13 -1.5l-10 -84c-1.33301 0 -3.16602 0.166992 -5.49902 0.5s-4.83301 0.5 -7.5 0.5c-2 0.666992 -4 1 -6 1h-5
c-18 0 -32.333 -5.16699 -43 -15.5s-17.667 -27.166 -21 -50.499l-21 -175h98l-7 -50h-97l-54 -455c-4.66699 -40.667 -17.334 -71.167 -38.001 -91.5s-53.667 -30.5 -99 -30.5c-9.33301 0 -17.333 0.166992 -24 0.5s-13 0.833008 -19 1.5
c-1.33301 0.666992 -2.83301 1.16699 -4.5 1.5s-3.5 0.5 -5.5 0.5l11 85c4.66699 -0.666992 9.33398 -1.66699 14.001 -3s9.33398 -2 14.001 -2c21.333 0 36.666 5.16699 45.999 15.5s15.333 28.166 18 53.499l51 424h-97v0z" />
    <glyph glyph-name="hungarumlaut" unicode="&#x2ba;" horiz-adv-x="240" 
d="M-33 602l81 132h121v-8l-131 -124h-71v0zM153 602l81 132h121v-8l-131 -124h-71v0z" />
    <glyph glyph-name="tilde" unicode="&#x2c6;" horiz-adv-x="240" 
d="M8 611h-40.999c1.33301 30.667 8.16602 56.834 20.499 78.501s32.833 32.5 61.5 32.5c3.33301 0 6.5 -0.166992 9.5 -0.5s6.16699 -0.833008 9.5 -1.5c10.667 -1.33301 21.334 -4 32.001 -8s20.667 -8 30 -12l35 -16c10.667 -4.66699 19.334 -7 26.001 -7
c2 0 4.33301 0.333008 7 1s5.33398 1.66699 8.00098 3c6 2.66699 11.5 7.16699 16.5 13.5s8.16699 14.833 9.5 25.5h41c-0.666992 -30.667 -7.33398 -56.834 -20.001 -78.501s-33.334 -32.5 -62.001 -32.5c-3.33301 0 -6.5 0.166992 -9.5 0.5s-6.16699 0.833008 -9.5 1.5
c-10.667 1.33301 -21.334 4 -32.001 8s-20.667 8.33301 -30 13l-34.5 15c-10.333 4.66699 -19.166 7 -26.499 7c-2 0 -4.33301 -0.333008 -7 -1s-5.33398 -1.66699 -8.00098 -3c-6 -2.66699 -11.5 -7.16699 -16.5 -13.5s-8.16699 -14.833 -9.5 -25.5v0z" />
    <glyph glyph-name="caron" unicode="&#x2c7;" horiz-adv-x="240" 
d="M120 658l76 76h74l-96 -132h-108l-96 132h74l76 -76v0z" />
    <glyph glyph-name="macron" unicode="&#x2c9;" horiz-adv-x="240" 
d="M-31 627v68h302v-68h-302v0z" />
    <glyph glyph-name="breve" unicode="&#x2d8;" horiz-adv-x="240" 
d="M-33 734l57.002 0.000976562c3.33301 -11.333 8 -21 14 -29s13 -14.667 21 -20c8.66699 -4.66699 18.167 -8.33398 28.5 -11.001s21.166 -4 32.499 -4c22 0 42 4.5 60 13.5s30 25.833 36 50.5h57c-1.33301 -36.667 -14.5 -67.834 -39.5 -93.501
s-62.833 -38.5 -113.5 -38.5s-88.334 12.833 -113.001 38.5s-37.667 56.834 -39 93.501h-1z" />
    <glyph glyph-name="dotaccent" unicode="&#x2d9;" horiz-adv-x="240" 
d="M57 665c0 17.333 6.16699 32.166 18.5 44.499s27.166 18.5 44.499 18.5s32.166 -6.16699 44.499 -18.5s18.5 -27.166 18.5 -44.499s-6.16699 -32.166 -18.5 -44.499s-27.166 -18.5 -44.499 -18.5s-32.166 6.16699 -44.499 18.5s-18.5 27.166 -18.5 44.499v0z" />
    <glyph glyph-name="ring" unicode="&#x2da;" horiz-adv-x="240" 
d="M27 673c0 25.333 9.16699 47.166 27.5 65.499s40.166 27.5 65.499 27.5s47.166 -9.16699 65.499 -27.5s27.5 -40.166 27.5 -65.499s-9.16699 -47.166 -27.5 -65.499s-40.166 -27.5 -65.499 -27.5s-47.166 9.16699 -65.499 27.5s-27.5 40.166 -27.5 65.499v0zM69 673
c0 -14 5 -26 15 -36s22 -15 36 -15s26 5 36 15s15 22 15 36s-5 26 -15 36s-22 15 -36 15s-26 -5 -36 -15s-15 -22 -15 -36v0z" />
    <glyph glyph-name="ogonek" unicode="&#x2db;" horiz-adv-x="240" 
d="M68 0l83.999 -0.00195312l-37 -58c-5.33301 -8.66699 -9.16602 -16.667 -11.499 -24s-3.5 -13.333 -3.5 -18c0 -6 1.83301 -11 5.5 -15s8.5 -6 14.5 -6c4.66699 0 9 0.833008 13 2.5s7.66699 4.16699 11 7.5l20 -64c-12 -6 -24.333 -10.833 -37 -14.5
s-25.667 -5.5 -39 -5.5c-24 0 -43 6.33301 -57 19s-21 30 -21 52c0 10.667 1.83301 23.334 5.5 38.001s11.5 30.334 23.5 47.001l29 39v0z" />
    <glyph glyph-name="circumflex" unicode="&#x2dc;" horiz-adv-x="240" 
d="M196 602l-76 76l-76 -76h-74l96 132h108l96 -132h-74v0z" />
    <glyph glyph-name="Gamma" unicode="&#x393;" horiz-adv-x="500" 
 />
    <glyph glyph-name="Theta" unicode="&#x398;" horiz-adv-x="500" 
 />
    <glyph glyph-name="summation" unicode="&#x3a3;" horiz-adv-x="500" 
 />
    <glyph glyph-name="Phi" unicode="&#x3a6;" horiz-adv-x="500" 
 />
    <glyph glyph-name="Omega" unicode="&#x3a9;" horiz-adv-x="500" 
 />
    <glyph glyph-name="alpha" unicode="&#x3b1;" horiz-adv-x="500" 
 />
    <glyph glyph-name="delta" unicode="&#x3b4;" horiz-adv-x="500" 
 />
    <glyph glyph-name="epsilon" unicode="&#x3b5;" horiz-adv-x="500" 
 />
    <glyph glyph-name="pi" unicode="&#x3c0;" horiz-adv-x="500" 
 />
    <glyph glyph-name="sigma" unicode="&#x3c3;" 
 />
    <glyph glyph-name="tau" unicode="&#x3c4;" horiz-adv-x="500" 
 />
    <glyph glyph-name="phi" unicode="&#x3c6;" 
 />
    <glyph glyph-name="endash" unicode="&#x2013;" horiz-adv-x="500" 
d="M0 237v79h500v-79h-500v0z" />
    <glyph glyph-name="emdash" unicode="&#x2014;" horiz-adv-x="1000" 
d="M0 237v79h1000v-79h-1000v0z" />
    <glyph glyph-name="underscoredbl" unicode="&#x2017;" horiz-adv-x="500" 
 />
    <glyph glyph-name="quoteleft" unicode="&#x2018;" horiz-adv-x="296" 
d="M55 516l122 244l64 -31l-93 -251l-93 38v0z" />
    <glyph glyph-name="quoteright" unicode="&#x2019;" horiz-adv-x="296" 
d="M55 509l93 251l93 -38l-122 -244l-64 31v0z" />
    <glyph glyph-name="quotesinglbase" unicode="&#x201a;" horiz-adv-x="296" 
d="M37 -136l93 251l93 -38l-122 -244l-64 31v0z" />
    <glyph glyph-name="quotedblleft" unicode="&#x201c;" horiz-adv-x="520" 
d="M63 516l122 244l64 -31l-93 -251l-93 38v0zM271 516l122 244l64 -31l-93 -251l-93 38v0z" />
    <glyph glyph-name="quotedblright" unicode="&#x201d;" horiz-adv-x="520" 
d="M63 509l93 251l93 -38l-122 -244l-64 31v0zM271 509l93 251l93 -38l-122 -244l-64 31v0z" />
    <glyph glyph-name="quotedblbase" unicode="&#x201e;" horiz-adv-x="520" 
d="M52 -136l93 251l93 -38l-122 -244l-64 31v0zM260 -136l93 251l93 -38l-122 -244l-64 31v0z" />
    <glyph glyph-name="dagger" unicode="&#x2020;" horiz-adv-x="520" 
d="M215 544v216h90v-216h169v-84h-169v-574h-90v574h-169v84h169v0z" />
    <glyph glyph-name="daggerdbl" unicode="&#x2021;" horiz-adv-x="520" 
d="M215 168v310h-169v84h169v198h90v-198h169v-84h-169v-310h169v-84h-169v-198h-90v198h-169v84h169v0z" />
    <glyph glyph-name="bullet" unicode="&#x2022;" horiz-adv-x="500" 
d="M60 380c0 52.667 18.5 97.5 55.5 134.5s81.833 55.5 134.5 55.5s97.5 -18.5 134.5 -55.5s55.5 -81.833 55.5 -134.5s-18.5 -97.5 -55.5 -134.5s-81.833 -55.5 -134.5 -55.5s-97.5 18.5 -134.5 55.5s-55.5 81.833 -55.5 134.5v0z" />
    <glyph glyph-name="ellipsis" unicode="&#x2026;" horiz-adv-x="1000" 
d="M101 58c0 18 6.5 33.5 19.5 46.5s28.5 19.5 46.5 19.5s33.5 -6.5 46.5 -19.5s19.5 -28.5 19.5 -46.5s-6.5 -33.333 -19.5 -46s-28.5 -19 -46.5 -19s-33.5 6.33301 -46.5 19s-19.5 28 -19.5 46v0zM434 58c0 18 6.5 33.5 19.5 46.5s28.5 19.5 46.5 19.5
s33.5 -6.5 46.5 -19.5s19.5 -28.5 19.5 -46.5s-6.5 -33.333 -19.5 -46s-28.5 -19 -46.5 -19s-33.5 6.33301 -46.5 19s-19.5 28 -19.5 46v0zM767 58c0 18 6.5 33.5 19.5 46.5s28.5 19.5 46.5 19.5s33.5 -6.5 46.5 -19.5s19.5 -28.5 19.5 -46.5s-6.5 -33.333 -19.5 -46
s-28.5 -19 -46.5 -19s-33.5 6.33301 -46.5 19s-19.5 28 -19.5 46v0z" />
    <glyph glyph-name="perthousand" unicode="&#x2030;" horiz-adv-x="1000" 
d="M77 -8l418 750h79l-418 -750h-79v0zM371 124v77c0 41.333 12.667 73.833 38 97.5s58 35.5 98 35.5c40.667 0 73.667 -11.833 99 -35.5s38 -56.167 38 -97.5v-77c0 -40.667 -12.667 -72.667 -38 -96s-58.333 -35 -99 -35c-40 0 -72.667 11.667 -98 35s-38 55.333 -38 96v0
zM445 189v-53c0 -24.667 5.16699 -44.334 15.5 -59.001s25.833 -22 46.5 -22c21.333 0 37.166 7.33301 47.499 22s15.5 34.334 15.5 59.001v53c0 25.333 -5.16699 45.333 -15.5 60s-26.166 22 -47.499 22c-20.667 0 -36.167 -7.33301 -46.5 -22s-15.5 -34.667 -15.5 -60v0z
M720 124v77c0 41.333 12.667 73.833 38 97.5s58 35.5 98 35.5c40.667 0 73.667 -11.833 99 -35.5s38 -56.167 38 -97.5v-77c0 -40.667 -12.667 -72.667 -38 -96s-58.333 -35 -99 -35c-40 0 -72.667 11.667 -98 35s-38 55.333 -38 96v0zM794 189v-53
c0 -24.667 5.16699 -44.334 15.5 -59.001s25.833 -22 46.5 -22c21.333 0 37.166 7.33301 47.499 22s15.5 34.334 15.5 59.001v53c0 25.333 -5.16699 45.333 -15.5 60s-26.166 22 -47.499 22c-20.667 0 -36.167 -7.33301 -46.5 -22s-15.5 -34.667 -15.5 -60v0zM7 532v77
c0 41.333 12.667 73.833 38 97.5s58 35.5 98 35.5c40.667 0 73.667 -11.833 99 -35.5s38 -56.167 38 -97.5v-77c0 -40.667 -12.667 -72.834 -38 -96.501s-58.333 -35.5 -99 -35.5c-40 0 -72.667 11.833 -98 35.5s-38 55.834 -38 96.501v0zM81 597v-53
c0 -24.667 5.16699 -44.334 15.5 -59.001s25.833 -22 46.5 -22c21.333 0 37.166 7.33301 47.499 22s15.5 34.334 15.5 59.001v53c0 25.333 -5.16699 45.333 -15.5 60s-26.166 22 -47.499 22c-20.667 0 -36.167 -7.33301 -46.5 -22s-15.5 -34.667 -15.5 -60v0z" />
    <glyph glyph-name="guilsinglleft" unicode="&#x2039;" horiz-adv-x="296" 
d="M55 276l107 192h84l-112 -192l112 -192h-84l-107 192v0z" />
    <glyph glyph-name="guilsinglright" unicode="&#x203a;" horiz-adv-x="296" 
d="M162 276l-112 192h84l107 -192l-107 -192h-84l112 192v0z" />
    <glyph glyph-name="exclamdbl" unicode="&#x203c;" horiz-adv-x="500" 
 />
    <glyph glyph-name="nsuperior" unicode="&#x207f;" horiz-adv-x="500" 
 />
    <glyph glyph-name="franc" unicode="&#x20a3;" horiz-adv-x="500" 
 />
    <glyph glyph-name="peseta" unicode="&#x20a7;" horiz-adv-x="500" 
 />
    <glyph glyph-name="trademark" unicode="&#x2122;" horiz-adv-x="990" 
d="M163 348v356h-127v56h328v-56h-127v-356h-74v0zM664 456l117 304h113v-412h-74v338h-2l-129 -338h-50l-129 338h-2v-338h-74v412h113l117 -304v0z" />
    <glyph glyph-name="arrowleft" unicode="&#x2190;" 
 />
    <glyph glyph-name="arrowup" unicode="&#x2191;" 
 />
    <glyph glyph-name="arrowright" unicode="&#x2192;" horiz-adv-x="500" 
 />
    <glyph glyph-name="arrowdown" unicode="&#x2193;" 
 />
    <glyph glyph-name="arrowboth" unicode="&#x2194;" 
 />
    <glyph glyph-name="arrowupdn" unicode="&#x2195;" 
 />
    <glyph glyph-name="arrowupdnbase" unicode="&#x21a8;" 
 />
    <glyph glyph-name="partialdiff" unicode="&#x2202;" horiz-adv-x="500" 
 />
    <glyph glyph-name="Delta" unicode="&#x2206;" horiz-adv-x="500" 
 />
    <glyph glyph-name="product" unicode="&#x220f;" 
 />
    <glyph glyph-name="minus" unicode="&#x2212;" horiz-adv-x="600" 
d="M47 216v74h506v-74h-506v0z" />
    <glyph glyph-name="fraction" unicode="&#x2215;" horiz-adv-x="167" 
d="M-165 -8l418 750h79l-418 -750h-79v0z" />
    <glyph glyph-name="periodcentered" unicode="&#x2219;" 
d="M64 323c0 18 6.5 33.5 19.5 46.5s28.5 19.5 46.5 19.5s33.5 -6.5 46.5 -19.5s19.5 -28.5 19.5 -46.5s-6.5 -33.5 -19.5 -46.5s-28.5 -19.5 -46.5 -19.5s-33.5 6.5 -46.5 19.5s-19.5 28.5 -19.5 46.5v0z" />
    <glyph glyph-name="radical" unicode="&#x221a;" horiz-adv-x="500" 
 />
    <glyph glyph-name="infinity" unicode="&#x221e;" 
 />
    <glyph glyph-name="orthogonal" unicode="&#x221f;" 
 />
    <glyph glyph-name="intersection" unicode="&#x2229;" 
 />
    <glyph glyph-name="integral" unicode="&#x222b;" 
 />
    <glyph glyph-name="approxequal" unicode="&#x2248;" horiz-adv-x="500" 
 />
    <glyph glyph-name="notequal" unicode="&#x2260;" horiz-adv-x="500" 
 />
    <glyph glyph-name="equivalence" unicode="&#x2261;" 
 />
    <glyph glyph-name="lessequal" unicode="&#x2264;" horiz-adv-x="500" 
 />
    <glyph glyph-name="greaterequal" unicode="&#x2265;" horiz-adv-x="500" 
 />
    <glyph glyph-name="house" unicode="&#x2302;" 
 />
    <glyph glyph-name="revlogicalnot" unicode="&#x2310;" 
 />
    <glyph glyph-name="integraltp" unicode="&#x2320;" 
 />
    <glyph glyph-name="integralbt" unicode="&#x2321;" 
 />
    <glyph glyph-name="2500" unicode="&#x2500;" 
 />
    <glyph glyph-name="2502" unicode="&#x2502;" 
 />
    <glyph glyph-name="250c" unicode="&#x250c;" 
 />
    <glyph glyph-name="2510" unicode="&#x2510;" 
 />
    <glyph glyph-name="2514" unicode="&#x2514;" 
 />
    <glyph glyph-name="2518" unicode="&#x2518;" 
 />
    <glyph glyph-name="251c" unicode="&#x251c;" 
 />
    <glyph glyph-name="2524" unicode="&#x2524;" 
 />
    <glyph glyph-name="252c" unicode="&#x252c;" 
 />
    <glyph glyph-name="2534" unicode="&#x2534;" 
 />
    <glyph glyph-name="253c" unicode="&#x253c;" 
 />
    <glyph glyph-name="2550" unicode="&#x2550;" 
 />
    <glyph glyph-name="2551" unicode="&#x2551;" 
 />
    <glyph glyph-name="2552" unicode="&#x2552;" 
 />
    <glyph glyph-name="2553" unicode="&#x2553;" 
 />
    <glyph glyph-name="2554" unicode="&#x2554;" 
 />
    <glyph glyph-name="2555" unicode="&#x2555;" 
 />
    <glyph glyph-name="2556" unicode="&#x2556;" 
 />
    <glyph glyph-name="2557" unicode="&#x2557;" 
 />
    <glyph glyph-name="2558" unicode="&#x2558;" 
 />
    <glyph glyph-name="2559" unicode="&#x2559;" 
 />
    <glyph glyph-name="255a" unicode="&#x255a;" 
 />
    <glyph glyph-name="255b" unicode="&#x255b;" 
 />
    <glyph glyph-name="255c" unicode="&#x255c;" 
 />
    <glyph glyph-name="255d" unicode="&#x255d;" 
 />
    <glyph glyph-name="255e" unicode="&#x255e;" 
 />
    <glyph glyph-name="255f" unicode="&#x255f;" 
 />
    <glyph glyph-name="2560" unicode="&#x2560;" 
 />
    <glyph glyph-name="2561" unicode="&#x2561;" 
 />
    <glyph glyph-name="2562" unicode="&#x2562;" 
 />
    <glyph glyph-name="2563" unicode="&#x2563;" 
 />
    <glyph glyph-name="2564" unicode="&#x2564;" 
 />
    <glyph glyph-name="2565" unicode="&#x2565;" 
 />
    <glyph glyph-name="2566" unicode="&#x2566;" 
 />
    <glyph glyph-name="2567" unicode="&#x2567;" 
 />
    <glyph glyph-name="2568" unicode="&#x2568;" 
 />
    <glyph glyph-name="2569" unicode="&#x2569;" 
 />
    <glyph glyph-name="256a" unicode="&#x256a;" 
 />
    <glyph glyph-name="256b" unicode="&#x256b;" 
 />
    <glyph glyph-name="256c" unicode="&#x256c;" 
 />
    <glyph glyph-name="upblock" unicode="&#x2580;" 
 />
    <glyph glyph-name="dnblock" unicode="&#x2584;" 
 />
    <glyph glyph-name="block" unicode="&#x2588;" 
 />
    <glyph glyph-name="lfblock" unicode="&#x258c;" 
 />
    <glyph glyph-name="rtblock" unicode="&#x2590;" 
 />
    <glyph glyph-name="ltshade" unicode="&#x2591;" 
 />
    <glyph glyph-name="shade" unicode="&#x2592;" 
 />
    <glyph glyph-name="dkshade" unicode="&#x2593;" 
 />
    <glyph glyph-name="filledbox" unicode="&#x25a0;" horiz-adv-x="500" 
 />
    <glyph glyph-name="filledrect" unicode="&#x25ac;" 
 />
    <glyph glyph-name="triagup" unicode="&#x25b2;" 
 />
    <glyph glyph-name="triagrt" unicode="&#x25ba;" 
 />
    <glyph glyph-name="triagdn" unicode="&#x25bc;" 
 />
    <glyph glyph-name="triaglf" unicode="&#x25c4;" 
 />
    <glyph glyph-name="lozenge" unicode="&#x25ca;" horiz-adv-x="500" 
 />
    <glyph glyph-name="circle" unicode="&#x25cb;" 
 />
    <glyph glyph-name="invbullet" unicode="&#x25d8;" 
 />
    <glyph glyph-name="invcircle" unicode="&#x25d9;" 
 />
    <glyph glyph-name="smileface" unicode="&#x263a;" 
 />
    <glyph glyph-name="invsmileface" unicode="&#x263b;" 
 />
    <glyph glyph-name="sun" unicode="&#x263c;" 
 />
    <glyph glyph-name="female" unicode="&#x2640;" 
 />
    <glyph glyph-name="male" unicode="&#x2642;" 
 />
    <glyph glyph-name="spade" unicode="&#x2660;" 
 />
    <glyph glyph-name="club" unicode="&#x2663;" 
 />
    <glyph glyph-name="heart" unicode="&#x2665;" 
 />
    <glyph glyph-name="diamond" unicode="&#x2666;" 
 />
    <glyph glyph-name="musicalnote" unicode="&#x266a;" 
 />
    <glyph glyph-name="musicalnotedbl" unicode="&#x266b;" 
 />
    <glyph glyph-name="apple" unicode="&#xf000;" 
 />
    <glyph glyph-name="fi" unicode="&#xf001;" horiz-adv-x="519" 
d="M98 521v78.998c0 54.667 16.833 95.334 50.5 122.001s76.5 41.334 128.5 44.001v-90h-18c-22.667 0 -40.167 -8 -52.5 -24s-18.5 -35.667 -18.5 -59v-72h85v-79h-85v-442h-90v442h-79v79h79v0zM354 -0.00195312v521h90v-521h-90v0zM336 685.998
c0 17.333 6.16699 32.166 18.5 44.499s27.166 18.5 44.499 18.5s32.166 -6.16699 44.499 -18.5s18.5 -27.166 18.5 -44.499s-6.16699 -32.166 -18.5 -44.499s-27.166 -18.5 -44.499 -18.5s-32.166 6.16699 -44.499 18.5s-18.5 27.166 -18.5 44.499v0z" />
    <glyph glyph-name="fl" unicode="&#xf002;" horiz-adv-x="519" 
d="M95 521v78.998c0 54.667 16.833 95.334 50.5 122.001s76.167 41.334 127.5 44.001v-90h-17c-22.667 0 -40.167 -8 -52.5 -24s-18.5 -35.667 -18.5 -59v-72h88v-79h-85v-442h-90v442h-79v79h76v0zM354 155.998l-0.000976562 603.999h90v-597c0 -29.333 6 -49.833 18 -61.5
s25.333 -17.5 40 -17.5h27v-84h-37c-41.333 0 -74.666 12.333 -99.999 37s-38 64.334 -38 119.001v0z" />
    <glyph glyph-name="glyph1" horiz-adv-x="0" 
 />
    <glyph glyph-name="glyph2" 
 />
    <glyph glyph-name="degree" horiz-adv-x="400" 
d="M57 599c0 39.333 14 73 42 101s61.667 42 101 42s73 -14 101 -42s42 -61.667 42 -101s-14 -73 -42 -101s-61.667 -42 -101 -42s-73 14 -101 42s-42 61.667 -42 101v0zM107 599c0 -25.333 9.16699 -47.166 27.5 -65.499s40.166 -27.5 65.499 -27.5
s47.166 9.16699 65.499 27.5s27.5 40.166 27.5 65.499s-9.16699 47.166 -27.5 65.499s-40.166 27.5 -65.499 27.5s-47.166 -9.16699 -65.499 -27.5s-27.5 -40.166 -27.5 -65.499v0z" />
    <glyph glyph-name="bullet" horiz-adv-x="500" 
d="M60 380c0 52.667 18.5 97.5 55.5 134.5s81.833 55.5 134.5 55.5s97.5 -18.5 134.5 -55.5s55.5 -81.833 55.5 -134.5s-18.5 -97.5 -55.5 -134.5s-81.833 -55.5 -134.5 -55.5s-97.5 18.5 -134.5 55.5s-55.5 81.833 -55.5 134.5v0z" />
    <glyph glyph-name="endash" horiz-adv-x="500" 
d="M0 237v79h500v-79h-500v0z" />
    </font>
</defs>
</svg>
